<svg width="1440" height="1100" viewBox="0 0 1440 1100" fill="none" xmlns="http://www.w3.org/2000/svg">
<g clip-path="url(#clip0_829_321)">
<path d="M-231.673 -139C-192.207 -139 -157.273 -130.733 -126.873 -114.2C-96.4734 -97.6666 -73.0067 -74.2 -56.4734 -43.7999C-39.94 -13.4 -31.6734 21.5333 -31.6734 61C-31.6734 100.467 -39.94 135.4 -56.4734 165.8C-73.0067 196.2 -96.4734 219.667 -126.873 236.2C-157.273 252.733 -192.207 261 -231.673 261C-271.14 261 -306.073 252.733 -336.473 236.2C-366.873 219.667 -390.34 196.2 -406.873 165.8C-423.407 135.4 -431.673 100.467 -431.673 61C-431.673 21.5333 -423.407 -13.4 -406.873 -43.7999C-390.34 -74.2 -366.873 -97.6666 -336.473 -114.2C-306.073 -130.733 -271.14 -139 -231.673 -139ZM-706.873 677C-666.873 677 -631.94 685.267 -602.073 701.8C-571.673 718.333 -548.207 741.8 -531.673 772.2C-515.14 802.067 -506.873 837 -506.873 877C-506.873 917 -515.14 951.933 -531.673 981.8C-548.207 1012.2 -571.673 1035.67 -602.073 1052.2C-631.94 1068.73 -666.873 1077 -706.873 1077C-746.873 1077 -782.073 1068.73 -812.473 1052.2C-842.34 1035.67 -865.54 1012.2 -882.073 981.8C-898.607 951.933 -906.873 917 -906.873 877C-906.873 837 -898.607 802.067 -882.073 772.2C-865.54 741.8 -842.34 718.333 -812.473 701.8C-782.073 685.267 -746.873 677 -706.873 677ZM-529.273 629.8C-489.273 629.8 -454.34 638.067 -424.473 654.6C-394.073 671.133 -370.607 694.6 -354.073 725C-337.54 754.867 -329.273 789.8 -329.273 829.8C-329.273 869.8 -337.54 904.733 -354.073 934.6C-370.607 965 -394.073 988.467 -424.473 1005C-454.34 1021.53 -489.273 1029.8 -529.273 1029.8C-569.273 1029.8 -604.473 1021.53 -634.873 1005C-664.74 988.467 -687.94 965 -704.473 934.6C-721.007 904.733 -729.273 869.8 -729.273 829.8C-729.273 789.8 -721.007 754.867 -704.473 725C-687.94 694.6 -664.74 671.133 -634.873 654.6C-604.473 638.067 -569.273 629.8 -529.273 629.8ZM-610.873 677C-570.873 677 -535.94 685.267 -506.073 701.8C-475.673 718.333 -452.207 741.8 -435.673 772.2C-419.14 802.067 -410.873 837 -410.873 877C-410.873 917 -419.14 951.933 -435.673 981.8C-452.207 1012.2 -475.673 1035.67 -506.073 1052.2C-535.94 1068.73 -570.873 1077 -610.873 1077C-650.873 1077 -686.073 1068.73 -716.473 1052.2C-746.34 1035.67 -769.54 1012.2 -786.073 981.8C-802.607 951.933 -810.873 917 -810.873 877C-810.873 837 -802.607 802.067 -786.073 772.2C-769.54 741.8 -746.34 718.333 -716.473 701.8C-686.073 685.267 -650.873 677 -610.873 677ZM-721.273 629C-681.273 629 -646.34 637.267 -616.473 653.8C-586.073 670.333 -562.607 693.8 -546.073 724.2C-529.54 754.067 -521.273 789 -521.273 829C-521.273 869 -529.54 903.933 -546.073 933.8C-562.607 964.2 -586.073 987.667 -616.473 1004.2C-646.34 1020.73 -681.273 1029 -721.273 1029C-761.273 1029 -796.473 1020.73 -826.873 1004.2C-856.74 987.667 -879.94 964.2 -896.473 933.8C-913.007 903.933 -921.273 869 -921.273 829C-921.273 789 -913.007 754.067 -896.473 724.2C-879.94 693.8 -856.74 670.333 -826.873 653.8C-796.473 637.267 -761.273 629 -721.273 629ZM-658.873 677C-618.873 677 -583.94 685.267 -554.073 701.8C-523.673 718.333 -500.207 741.8 -483.673 772.2C-467.14 802.067 -458.873 837 -458.873 877C-458.873 917 -467.14 951.933 -483.673 981.8C-500.207 1012.2 -523.673 1035.67 -554.073 1052.2C-583.94 1068.73 -618.873 1077 -658.873 1077C-698.873 1077 -734.073 1068.73 -764.473 1052.2C-794.34 1035.67 -817.54 1012.2 -834.073 981.8C-850.607 951.933 -858.873 917 -858.873 877C-858.873 837 -850.607 802.067 -834.073 772.2C-817.54 741.8 -794.34 718.333 -764.473 701.8C-734.073 685.267 -698.873 677 -658.873 677ZM-687.673 581C-648.207 581 -613.273 589.267 -582.873 605.8C-552.473 622.333 -529.007 645.8 -512.473 676.2C-495.94 706.6 -487.673 741.533 -487.673 781C-487.673 820.467 -495.94 855.4 -512.473 885.8C-529.007 916.2 -552.473 939.667 -582.873 956.2C-613.273 972.733 -648.207 981 -687.673 981C-727.14 981 -762.073 972.733 -792.473 956.2C-822.873 939.667 -846.34 916.2 -862.873 885.8C-879.407 855.4 -887.673 820.467 -887.673 781C-887.673 741.533 -879.407 706.6 -862.873 676.2C-846.34 645.8 -822.873 622.333 -792.473 605.8C-762.073 589.267 -727.14 581 -687.673 581ZM-702.073 533C-662.607 533 -627.673 541.267 -597.273 557.8C-566.873 574.333 -543.407 597.8 -526.873 628.2C-510.34 658.6 -502.073 693.533 -502.073 733C-502.073 772.467 -510.34 807.4 -526.873 837.8C-543.407 868.2 -566.873 891.667 -597.273 908.2C-627.673 924.733 -662.607 933 -702.073 933C-741.54 933 -776.473 924.733 -806.873 908.2C-837.273 891.667 -860.74 868.2 -877.273 837.8C-893.807 807.4 -902.073 772.467 -902.073 733C-902.073 693.533 -893.807 658.6 -877.273 628.2C-860.74 597.8 -837.273 574.333 -806.873 557.8C-776.473 541.267 -741.54 533 -702.073 533ZM-126.073 52.2001C-86.6068 52.2001 -51.6734 60.4667 -21.2734 77C9.12665 93.5334 32.5933 117 49.1266 147.4C65.6599 177.8 73.9266 212.733 73.9266 252.2C73.9266 291.667 65.6599 326.6 49.1266 357C32.5933 387.4 9.12665 410.867 -21.2734 427.4C-51.6734 443.933 -86.6068 452.2 -126.073 452.2C-165.54 452.2 -200.473 443.933 -230.873 427.4C-261.273 410.867 -284.74 387.4 -301.273 357C-317.807 326.6 -326.073 291.667 -326.073 252.2C-326.073 212.733 -317.807 177.8 -301.273 147.4C-284.74 117 -261.273 93.5334 -230.873 77C-200.473 60.4667 -165.54 52.2001 -126.073 52.2001ZM-174.073 52.2001C-134.607 52.2001 -99.6734 60.4667 -69.2734 77C-38.8734 93.5334 -15.4068 117 1.12659 147.4C17.6599 177.8 25.9266 212.733 25.9266 252.2C25.9266 291.667 17.6599 326.6 1.12659 357C-15.4068 387.4 -38.8734 410.867 -69.2734 427.4C-99.6734 443.933 -134.607 452.2 -174.073 452.2C-213.54 452.2 -248.473 443.933 -278.873 427.4C-309.273 410.867 -332.74 387.4 -349.273 357C-365.807 326.6 -374.073 291.667 -374.073 252.2C-374.073 212.733 -365.807 177.8 -349.273 147.4C-332.74 117 -309.273 93.5334 -278.873 77C-248.473 60.4667 -213.54 52.2001 -174.073 52.2001ZM-414.073 52.2001C-374.607 52.2001 -339.673 60.4667 -309.273 77C-278.873 93.5334 -255.407 117 -238.873 147.4C-222.34 177.8 -214.073 212.733 -214.073 252.2C-214.073 291.667 -222.34 326.6 -238.873 357C-255.407 387.4 -278.873 410.867 -309.273 427.4C-339.673 443.933 -374.607 452.2 -414.073 452.2C-453.54 452.2 -488.473 443.933 -518.873 427.4C-549.273 410.867 -572.74 387.4 -589.273 357C-605.807 326.6 -614.073 291.667 -614.073 252.2C-614.073 212.733 -605.807 177.8 -589.273 147.4C-572.74 117 -549.273 93.5334 -518.873 77C-488.473 60.4667 -453.54 52.2001 -414.073 52.2001ZM-462.073 53C-422.607 53 -387.673 61.2667 -357.273 77.8C-326.873 94.3334 -303.407 117.8 -286.873 148.2C-270.34 178.6 -262.073 213.533 -262.073 253C-262.073 292.467 -270.34 327.4 -286.873 357.8C-303.407 388.2 -326.873 411.667 -357.273 428.2C-387.673 444.733 -422.607 453 -462.073 453C-501.54 453 -536.473 444.733 -566.873 428.2C-597.273 411.667 -620.74 388.2 -637.273 357.8C-653.807 327.4 -662.073 292.467 -662.073 253C-662.073 213.533 -653.807 178.6 -637.273 148.2C-620.74 117.8 -597.273 94.3334 -566.873 77.8C-536.473 61.2667 -501.54 53 -462.073 53ZM-265.273 -91C-225.807 -91 -190.873 -82.7333 -160.473 -66.1999C-130.073 -49.6667 -106.607 -26.2 -90.0734 4.20001C-73.5401 34.6 -65.2734 69.5334 -65.2734 109C-65.2734 148.467 -73.5401 183.4 -90.0734 213.8C-106.607 244.2 -130.073 267.667 -160.473 284.2C-190.873 300.733 -225.807 309 -265.273 309C-304.74 309 -339.673 300.733 -370.073 284.2C-400.473 267.667 -423.94 244.2 -440.473 213.8C-457.007 183.4 -465.273 148.467 -465.273 109C-465.273 69.5334 -457.007 34.6 -440.473 4.20001C-423.94 -26.2 -400.473 -49.6667 -370.073 -66.1999C-339.673 -82.7333 -304.74 -91 -265.273 -91ZM-222.073 52.2001C-182.607 52.2001 -147.673 60.4667 -117.273 77C-86.8734 93.5334 -63.4067 117 -46.8734 147.4C-30.3401 177.8 -22.0734 212.733 -22.0734 252.2C-22.0734 291.667 -30.3401 326.6 -46.8734 357C-63.4067 387.4 -86.8734 410.867 -117.273 427.4C-147.673 443.933 -182.607 452.2 -222.073 452.2C-261.54 452.2 -296.473 443.933 -326.873 427.4C-357.273 410.867 -380.74 387.4 -397.273 357C-413.807 326.6 -422.073 291.667 -422.073 252.2C-422.073 212.733 -413.807 177.8 -397.273 147.4C-380.74 117 -357.273 93.5334 -326.873 77C-296.473 60.4667 -261.54 52.2001 -222.073 52.2001ZM-270.073 53C-230.607 53 -195.673 61.2667 -165.273 77.8C-134.873 94.3334 -111.407 117.8 -94.8734 148.2C-78.3401 178.6 -70.0734 213.533 -70.0734 253C-70.0734 292.467 -78.3401 327.4 -94.8734 357.8C-111.407 388.2 -134.873 411.667 -165.273 428.2C-195.673 444.733 -230.607 453 -270.073 453C-309.54 453 -344.473 444.733 -374.873 428.2C-405.273 411.667 -428.74 388.2 -445.273 357.8C-461.807 327.4 -470.073 292.467 -470.073 253C-470.073 213.533 -461.807 178.6 -445.273 148.2C-428.74 117.8 -405.273 94.3334 -374.873 77.8C-344.473 61.2667 -309.54 53 -270.073 53ZM-318.073 53C-278.607 53 -243.673 61.2667 -213.273 77.8C-182.873 94.3334 -159.407 117.8 -142.873 148.2C-126.34 178.6 -118.073 213.533 -118.073 253C-118.073 292.467 -126.34 327.4 -142.873 357.8C-159.407 388.2 -182.873 411.667 -213.273 428.2C-243.673 444.733 -278.607 453 -318.073 453C-357.54 453 -392.473 444.733 -422.873 428.2C-453.273 411.667 -476.74 388.2 -493.273 357.8C-509.807 327.4 -518.073 292.467 -518.073 253C-518.073 213.533 -509.807 178.6 -493.273 148.2C-476.74 117.8 -453.273 94.3334 -422.873 77.8C-392.473 61.2667 -357.54 53 -318.073 53ZM-668.473 485C-629.007 485 -594.073 493.267 -563.673 509.8C-533.273 526.333 -509.807 549.8 -493.273 580.2C-476.74 610.6 -468.473 645.533 -468.473 685C-468.473 724.467 -476.74 759.4 -493.273 789.8C-509.807 820.2 -533.273 843.667 -563.673 860.2C-594.073 876.733 -629.007 885 -668.473 885C-707.94 885 -742.873 876.733 -773.273 860.2C-803.673 843.667 -827.14 820.2 -843.673 789.8C-860.207 759.4 -868.473 724.467 -868.473 685C-868.473 645.533 -860.207 610.6 -843.673 580.2C-827.14 549.8 -803.673 526.333 -773.273 509.8C-742.873 493.267 -707.94 485 -668.473 485ZM-298.873 -43C-259.407 -43 -224.473 -34.7333 -194.073 -18.2C-163.673 -1.66664 -140.207 21.8001 -123.673 52.2001C-107.14 82.6001 -98.8734 117.533 -98.8734 157C-98.8734 196.467 -107.14 231.4 -123.673 261.8C-140.207 292.2 -163.673 315.667 -194.073 332.2C-224.473 348.733 -259.407 357 -298.873 357C-338.34 357 -373.273 348.733 -403.673 332.2C-434.073 315.667 -457.54 292.2 -474.073 261.8C-490.607 231.4 -498.873 196.467 -498.873 157C-498.873 117.533 -490.607 82.6001 -474.073 52.2001C-457.54 21.8001 -434.073 -1.66664 -403.673 -18.2C-373.273 -34.7333 -338.34 -43 -298.873 -43ZM-634.873 437C-595.407 437 -560.473 445.267 -530.073 461.8C-499.673 478.333 -476.207 501.8 -459.673 532.2C-443.14 562.6 -434.873 597.533 -434.873 637C-434.873 676.467 -443.14 711.4 -459.673 741.8C-476.207 772.2 -499.673 795.667 -530.073 812.2C-560.473 828.733 -595.407 837 -634.873 837C-674.34 837 -709.273 828.733 -739.673 812.2C-770.073 795.667 -793.54 772.2 -810.073 741.8C-826.607 711.4 -834.873 676.467 -834.873 637C-834.873 597.533 -826.607 562.6 -810.073 532.2C-793.54 501.8 -770.073 478.333 -739.673 461.8C-709.273 445.267 -674.34 437 -634.873 437ZM-500.473 245C-461.007 245 -426.073 253.267 -395.673 269.8C-365.273 286.333 -341.807 309.8 -325.273 340.2C-308.74 370.6 -300.473 405.533 -300.473 445C-300.473 484.467 -308.74 519.4 -325.273 549.8C-341.807 580.2 -365.273 603.667 -395.673 620.2C-426.073 636.733 -461.007 645 -500.473 645C-539.94 645 -574.873 636.733 -605.273 620.2C-635.673 603.667 -659.14 580.2 -675.673 549.8C-692.207 519.4 -700.473 484.467 -700.473 445C-700.473 405.533 -692.207 370.6 -675.673 340.2C-659.14 309.8 -635.673 286.333 -605.273 269.8C-574.873 253.267 -539.94 245 -500.473 245ZM-466.873 197C-427.407 197 -392.473 205.267 -362.073 221.8C-331.673 238.333 -308.207 261.8 -291.673 292.2C-275.14 322.6 -266.873 357.533 -266.873 397C-266.873 436.467 -275.14 471.4 -291.673 501.8C-308.207 532.2 -331.673 555.667 -362.073 572.2C-392.473 588.733 -427.407 597 -466.873 597C-506.34 597 -541.273 588.733 -571.673 572.2C-602.073 555.667 -625.54 532.2 -642.073 501.8C-658.607 471.4 -666.873 436.467 -666.873 397C-666.873 357.533 -658.607 322.6 -642.073 292.2C-625.54 261.8 -602.073 238.333 -571.673 221.8C-541.273 205.267 -506.34 197 -466.873 197ZM-433.273 149C-393.807 149 -358.873 157.267 -328.473 173.8C-298.073 190.333 -274.607 213.8 -258.073 244.2C-241.54 274.6 -233.273 309.533 -233.273 349C-233.273 388.467 -241.54 423.4 -258.073 453.8C-274.607 484.2 -298.073 507.667 -328.473 524.2C-358.873 540.733 -393.807 549 -433.273 549C-472.74 549 -507.673 540.733 -538.073 524.2C-568.473 507.667 -591.94 484.2 -608.473 453.8C-625.007 423.4 -633.273 388.467 -633.273 349C-633.273 309.533 -625.007 274.6 -608.473 244.2C-591.94 213.8 -568.473 190.333 -538.073 173.8C-507.673 157.267 -472.74 149 -433.273 149ZM-332.473 5.00006C-293.007 5.00006 -258.073 13.2667 -227.673 29.8001C-197.273 46.3333 -173.807 69.8 -157.273 100.2C-140.74 130.6 -132.473 165.533 -132.473 205C-132.473 244.467 -140.74 279.4 -157.273 309.8C-173.807 340.2 -197.273 363.667 -227.673 380.2C-258.073 396.733 -293.007 405 -332.473 405C-371.94 405 -406.873 396.733 -437.273 380.2C-467.673 363.667 -491.14 340.2 -507.673 309.8C-524.207 279.4 -532.473 244.467 -532.473 205C-532.473 165.533 -524.207 130.6 -507.673 100.2C-491.14 69.8 -467.673 46.3333 -437.273 29.8001C-406.873 13.2667 -371.94 5.00006 -332.473 5.00006ZM-366.073 53C-326.607 53 -291.673 61.2667 -261.273 77.8C-230.873 94.3334 -207.407 117.8 -190.873 148.2C-174.34 178.6 -166.073 213.533 -166.073 253C-166.073 292.467 -174.34 327.4 -190.873 357.8C-207.407 388.2 -230.873 411.667 -261.273 428.2C-291.673 444.733 -326.607 453 -366.073 453C-405.54 453 -440.473 444.733 -470.873 428.2C-501.273 411.667 -524.74 388.2 -541.273 357.8C-557.807 327.4 -566.073 292.467 -566.073 253C-566.073 213.533 -557.807 178.6 -541.273 148.2C-524.74 117.8 -501.273 94.3334 -470.873 77.8C-440.473 61.2667 -405.54 53 -366.073 53ZM-399.673 101C-360.207 101 -325.273 109.267 -294.873 125.8C-264.473 142.333 -241.007 165.8 -224.473 196.2C-207.94 226.6 -199.673 261.533 -199.673 301C-199.673 340.467 -207.94 375.4 -224.473 405.8C-241.007 436.2 -264.473 459.667 -294.873 476.2C-325.273 492.733 -360.207 501 -399.673 501C-439.14 501 -474.073 492.733 -504.473 476.2C-534.873 459.667 -558.34 436.2 -574.873 405.8C-591.407 375.4 -599.673 340.467 -599.673 301C-599.673 261.533 -591.407 226.6 -574.873 196.2C-558.34 165.8 -534.873 142.333 -504.473 125.8C-474.073 109.267 -439.14 101 -399.673 101ZM-534.073 293C-494.607 293 -459.673 301.267 -429.273 317.8C-398.873 334.333 -375.407 357.8 -358.873 388.2C-342.34 418.6 -334.073 453.533 -334.073 493C-334.073 532.467 -342.34 567.4 -358.873 597.8C-375.407 628.2 -398.873 651.667 -429.273 668.2C-459.673 684.733 -494.607 693 -534.073 693C-573.54 693 -608.473 684.733 -638.873 668.2C-669.273 651.667 -692.74 628.2 -709.273 597.8C-725.807 567.4 -734.073 532.467 -734.073 493C-734.073 453.533 -725.807 418.6 -709.273 388.2C-692.74 357.8 -669.273 334.333 -638.873 317.8C-608.473 301.267 -573.54 293 -534.073 293ZM-567.673 341C-528.207 341 -493.273 349.267 -462.873 365.8C-432.473 382.333 -409.007 405.8 -392.473 436.2C-375.94 466.6 -367.673 501.533 -367.673 541C-367.673 580.467 -375.94 615.4 -392.473 645.8C-409.007 676.2 -432.473 699.667 -462.873 716.2C-493.273 732.733 -528.207 741 -567.673 741C-607.14 741 -642.073 732.733 -672.473 716.2C-702.873 699.667 -726.34 676.2 -742.873 645.8C-759.407 615.4 -767.673 580.467 -767.673 541C-767.673 501.533 -759.407 466.6 -742.873 436.2C-726.34 405.8 -702.873 382.333 -672.473 365.8C-642.073 349.267 -607.14 341 -567.673 341ZM-601.273 389C-561.807 389 -526.873 397.267 -496.473 413.8C-466.073 430.333 -442.607 453.8 -426.073 484.2C-409.54 514.6 -401.273 549.533 -401.273 589C-401.273 628.467 -409.54 663.4 -426.073 693.8C-442.607 724.2 -466.073 747.667 -496.473 764.2C-526.873 780.733 -561.807 789 -601.273 789C-640.74 789 -675.673 780.733 -706.073 764.2C-736.473 747.667 -759.94 724.2 -776.473 693.8C-793.007 663.4 -801.273 628.467 -801.273 589C-801.273 549.533 -793.007 514.6 -776.473 484.2C-759.94 453.8 -736.473 430.333 -706.073 413.8C-675.673 397.267 -640.74 389 -601.273 389Z" fill="white"/>
<path d="M530.177 53C569.643 53 604.577 61.2667 634.977 77.8C665.377 94.3334 688.843 117.8 705.377 148.2C721.91 178.6 730.177 213.533 730.177 253C730.177 292.467 721.91 327.4 705.377 357.8C688.843 388.2 665.377 411.667 634.977 428.2C604.577 444.733 569.643 453 530.177 453C490.71 453 455.777 444.733 425.377 428.2C394.977 411.667 371.51 388.2 354.977 357.8C338.443 327.4 330.177 292.467 330.177 253C330.177 213.533 338.443 178.6 354.977 148.2C371.51 117.8 394.977 94.3334 425.377 77.8C455.777 61.2667 490.71 53 530.177 53ZM458.177 293C497.643 293 532.577 301.267 562.977 317.8C593.377 334.333 616.843 357.8 633.377 388.2C649.91 418.6 658.177 453.533 658.177 493C658.177 532.467 649.91 567.4 633.377 597.8C616.843 628.2 593.377 651.667 562.977 668.2C532.577 684.733 497.643 693 458.177 693C418.71 693 383.777 684.733 353.377 668.2C322.977 651.667 299.51 628.2 282.977 597.8C266.443 567.4 258.177 532.467 258.177 493C258.177 453.533 266.443 418.6 282.977 388.2C299.51 357.8 322.977 334.333 353.377 317.8C383.777 301.267 418.71 293 458.177 293ZM352.577 101C392.043 101 426.977 109.267 457.377 125.8C487.777 142.333 511.243 165.8 527.777 196.2C544.31 226.6 552.577 261.533 552.577 301C552.577 340.467 544.31 375.4 527.777 405.8C511.243 436.2 487.777 459.667 457.377 476.2C426.977 492.733 392.043 501 352.577 501C313.11 501 278.177 492.733 247.777 476.2C217.377 459.667 193.91 436.2 177.377 405.8C160.843 375.4 152.577 340.467 152.577 301C152.577 261.533 160.843 226.6 177.377 196.2C193.91 165.8 217.377 142.333 247.777 125.8C278.177 109.267 313.11 101 352.577 101ZM544.577 101C584.043 101 618.977 109.267 649.377 125.8C679.777 142.333 703.243 165.8 719.777 196.2C736.31 226.6 744.577 261.533 744.577 301C744.577 340.467 736.31 375.4 719.777 405.8C703.243 436.2 679.777 459.667 649.377 476.2C618.977 492.733 584.043 501 544.577 501C505.11 501 470.177 492.733 439.776 476.2C409.377 459.667 385.91 436.2 369.377 405.8C352.843 375.4 344.577 340.467 344.577 301C344.577 261.533 352.843 226.6 369.377 196.2C385.91 165.8 409.377 142.333 439.776 125.8C470.177 109.267 505.11 101 544.577 101ZM573.377 197C612.843 197 647.777 205.267 678.177 221.8C708.577 238.333 732.043 261.8 748.577 292.2C765.11 322.6 773.377 357.533 773.377 397C773.377 436.467 765.11 471.4 748.577 501.8C732.043 532.2 708.577 555.667 678.177 572.2C647.777 588.733 612.843 597 573.377 597C533.91 597 498.977 588.733 468.577 572.2C438.177 555.667 414.71 532.2 398.177 501.8C381.643 471.4 373.377 436.467 373.377 397C373.377 357.533 381.643 322.6 398.177 292.2C414.71 261.8 438.177 238.333 468.577 221.8C498.977 205.267 533.91 197 573.377 197ZM434.177 53C473.643 53 508.577 61.2667 538.977 77.8C569.377 94.3334 592.843 117.8 609.377 148.2C625.91 178.6 634.177 213.533 634.177 253C634.177 292.467 625.91 327.4 609.377 357.8C592.843 388.2 569.377 411.667 538.977 428.2C508.577 444.733 473.643 453 434.177 453C394.71 453 359.777 444.733 329.377 428.2C298.977 411.667 275.51 388.2 258.977 357.8C242.443 327.4 234.177 292.467 234.177 253C234.177 213.533 242.443 178.6 258.977 148.2C275.51 117.8 298.977 94.3334 329.377 77.8C359.777 61.2667 394.71 53 434.177 53ZM592.577 101C632.043 101 666.977 109.267 697.377 125.8C727.777 142.333 751.243 165.8 767.777 196.2C784.31 226.6 792.577 261.533 792.577 301C792.577 340.467 784.31 375.4 767.777 405.8C751.243 436.2 727.777 459.667 697.377 476.2C666.977 492.733 632.043 501 592.577 501C553.11 501 518.177 492.733 487.777 476.2C457.377 459.667 433.91 436.2 417.377 405.8C400.843 375.4 392.577 340.467 392.577 301C392.577 261.533 400.843 226.6 417.377 196.2C433.91 165.8 457.377 142.333 487.777 125.8C518.177 109.267 553.11 101 592.577 101ZM304.577 101C344.043 101 378.977 109.267 409.377 125.8C439.777 142.333 463.243 165.8 479.777 196.2C496.31 226.6 504.577 261.533 504.577 301C504.577 340.467 496.31 375.4 479.777 405.8C463.243 436.2 439.777 459.667 409.377 476.2C378.977 492.733 344.043 501 304.577 501C265.11 501 230.177 492.733 199.777 476.2C169.377 459.667 145.91 436.2 129.377 405.8C112.843 375.4 104.577 340.467 104.577 301C104.577 261.533 112.843 226.6 129.377 196.2C145.91 165.8 169.377 142.333 199.777 125.8C230.177 109.267 265.11 101 304.577 101ZM482.177 53C521.643 53 556.577 61.2667 586.977 77.8C617.377 94.3334 640.843 117.8 657.377 148.2C673.91 178.6 682.177 213.533 682.177 253C682.177 292.467 673.91 327.4 657.377 357.8C640.843 388.2 617.377 411.667 586.977 428.2C556.577 444.733 521.643 453 482.177 453C442.71 453 407.777 444.733 377.377 428.2C346.977 411.667 323.51 388.2 306.977 357.8C290.443 327.4 282.177 292.467 282.177 253C282.177 213.533 290.443 178.6 306.977 148.2C323.51 117.8 346.977 94.3334 377.377 77.8C407.777 61.2667 442.71 53 482.177 53ZM558.977 149C598.443 149 633.377 157.267 663.777 173.8C694.177 190.333 717.643 213.8 734.177 244.2C750.71 274.6 758.977 309.533 758.977 349C758.977 388.467 750.71 423.4 734.177 453.8C717.643 484.2 694.177 507.667 663.777 524.2C633.377 540.733 598.443 549 558.977 549C519.51 549 484.577 540.733 454.177 524.2C423.777 507.667 400.31 484.2 383.777 453.8C367.243 423.4 358.977 388.467 358.977 349C358.977 309.533 367.243 274.6 383.777 244.2C400.31 213.8 423.777 190.333 454.177 173.8C484.577 157.267 519.51 149 558.977 149ZM222.977 149C262.443 149 297.377 157.267 327.777 173.8C358.177 190.333 381.643 213.8 398.177 244.2C414.71 274.6 422.977 309.533 422.977 349C422.977 388.467 414.71 423.4 398.177 453.8C381.643 484.2 358.177 507.667 327.777 524.2C297.377 540.733 262.443 549 222.977 549C183.51 549 148.577 540.733 118.177 524.2C87.7766 507.667 64.3099 484.2 47.7766 453.8C31.2433 423.4 22.9766 388.467 22.9766 349C22.9766 309.533 31.2433 274.6 47.7766 244.2C64.3099 213.8 87.7766 190.333 118.177 173.8C148.577 157.267 183.51 149 222.977 149ZM410.177 293C449.643 293 484.577 301.267 514.977 317.8C545.377 334.333 568.843 357.8 585.377 388.2C601.91 418.6 610.177 453.533 610.177 493C610.177 532.467 601.91 567.4 585.377 597.8C568.843 628.2 545.377 651.667 514.977 668.2C484.577 684.733 449.643 693 410.177 693C370.71 693 335.777 684.733 305.377 668.2C274.977 651.667 251.51 628.2 234.977 597.8C218.443 567.4 210.177 532.467 210.177 493C210.177 453.533 218.443 418.6 234.977 388.2C251.51 357.8 274.977 334.333 305.377 317.8C335.777 301.267 370.71 293 410.177 293ZM362.177 293C401.643 293 436.577 301.267 466.977 317.8C497.377 334.333 520.843 357.8 537.377 388.2C553.91 418.6 562.177 453.533 562.177 493C562.177 532.467 553.91 567.4 537.377 597.8C520.843 628.2 497.377 651.667 466.977 668.2C436.577 684.733 401.643 693 362.177 693C322.71 693 287.777 684.733 257.377 668.2C226.977 651.667 203.51 628.2 186.977 597.8C170.443 567.4 162.177 532.467 162.177 493C162.177 453.533 170.443 418.6 186.977 388.2C203.51 357.8 226.977 334.333 257.377 317.8C287.777 301.267 322.71 293 362.177 293ZM314.177 293C353.643 293 388.577 301.267 418.977 317.8C449.377 334.333 472.843 357.8 489.377 388.2C505.91 418.6 514.177 453.533 514.177 493C514.177 532.467 505.91 567.4 489.377 597.8C472.843 628.2 449.377 651.667 418.977 668.2C388.577 684.733 353.643 693 314.177 693C274.71 693 239.777 684.733 209.377 668.2C178.977 651.667 155.51 628.2 138.977 597.8C122.443 567.4 114.177 532.467 114.177 493C114.177 453.533 122.443 418.6 138.977 388.2C155.51 357.8 178.977 334.333 209.377 317.8C239.777 301.267 274.71 293 314.177 293ZM266.177 293C305.643 293 340.577 301.267 370.977 317.8C401.377 334.333 424.843 357.8 441.377 388.2C457.91 418.6 466.177 453.533 466.177 493C466.177 532.467 457.91 567.4 441.377 597.8C424.843 628.2 401.377 651.667 370.977 668.2C340.577 684.733 305.643 693 266.177 693C226.71 693 191.777 684.733 161.377 668.2C130.977 651.667 107.51 628.2 90.9766 597.8C74.4433 567.4 66.1766 532.467 66.1766 493C66.1766 453.533 74.4433 418.6 90.9766 388.2C107.51 357.8 130.977 334.333 161.377 317.8C191.777 301.267 226.71 293 266.177 293ZM218.177 293C257.643 293 292.577 301.267 322.977 317.8C353.377 334.333 376.843 357.8 393.377 388.2C409.91 418.6 418.177 453.533 418.177 493C418.177 532.467 409.91 567.4 393.377 597.8C376.843 628.2 353.377 651.667 322.977 668.2C292.577 684.733 257.643 693 218.177 693C178.71 693 143.777 684.733 113.377 668.2C82.9766 651.667 59.5099 628.2 42.9766 597.8C26.4433 567.4 18.1766 532.467 18.1766 493C18.1766 453.533 26.4433 418.6 42.9766 388.2C59.5099 357.8 82.9766 334.333 113.377 317.8C143.777 301.267 178.71 293 218.177 293ZM170.177 293C209.643 293 244.577 301.267 274.977 317.8C305.377 334.333 328.843 357.8 345.377 388.2C361.91 418.6 370.177 453.533 370.177 493C370.177 532.467 361.91 567.4 345.377 597.8C328.843 628.2 305.377 651.667 274.977 668.2C244.577 684.733 209.643 693 170.177 693C130.71 693 95.7765 684.733 65.3765 668.2C34.9765 651.667 11.5099 628.2 -5.02344 597.8C-21.5568 567.4 -29.8234 532.467 -29.8234 493C-29.8234 453.533 -21.5568 418.6 -5.02344 388.2C11.5099 357.8 34.9765 334.333 65.3765 317.8C95.7765 301.267 130.71 293 170.177 293ZM122.177 293C161.643 293 196.577 301.267 226.977 317.8C257.377 334.333 280.843 357.8 297.377 388.2C313.91 418.6 322.177 453.533 322.177 493C322.177 532.467 313.91 567.4 297.377 597.8C280.843 628.2 257.377 651.667 226.977 668.2C196.577 684.733 161.643 693 122.177 693C82.71 693 47.7765 684.733 17.3765 668.2C-13.0235 651.667 -36.4901 628.2 -53.0234 597.8C-69.5568 567.4 -77.8234 532.467 -77.8234 493C-77.8234 453.533 -69.5568 418.6 -53.0234 388.2C-36.4901 357.8 -13.0235 334.333 17.3765 317.8C47.7765 301.267 82.71 293 122.177 293ZM93.3766 677C133.377 677 168.31 685.267 198.177 701.8C228.577 718.333 252.043 741.8 268.577 772.2C285.11 802.067 293.377 837 293.377 877C293.377 917 285.11 951.933 268.577 981.8C252.043 1012.2 228.577 1035.67 198.177 1052.2C168.31 1068.73 133.377 1077 93.3766 1077C53.3766 1077 18.1766 1068.73 -12.2234 1052.2C-42.0901 1035.67 -65.2901 1012.2 -81.8234 981.8C-98.3568 951.933 -106.623 917 -106.623 877C-106.623 837 -98.3568 802.067 -81.8234 772.2C-65.2901 741.8 -42.0901 718.333 -12.2234 701.8C18.1766 685.267 53.3766 677 93.3766 677ZM189.377 197C228.843 197 263.777 205.267 294.177 221.8C324.577 238.333 348.043 261.8 364.577 292.2C381.11 322.6 389.377 357.533 389.377 397C389.377 436.467 381.11 471.4 364.577 501.8C348.043 532.2 324.577 555.667 294.177 572.2C263.777 588.733 228.843 597 189.377 597C149.91 597 114.977 588.733 84.5766 572.2C54.1766 555.667 30.7099 532.2 14.1766 501.8C-2.35677 471.4 -10.6234 436.467 -10.6234 397C-10.6234 357.533 -2.35677 322.6 14.1766 292.2C30.7099 261.8 54.1766 238.333 84.5766 221.8C114.977 205.267 149.91 197 189.377 197ZM-60.2234 485C-20.7568 485 14.1766 493.267 44.5766 509.8C74.9766 526.333 98.4432 549.8 114.977 580.2C131.51 610.6 139.777 645.533 139.777 685C139.777 724.467 131.51 759.4 114.977 789.8C98.4432 820.2 74.9766 843.667 44.5766 860.2C14.1766 876.733 -20.7568 885 -60.2234 885C-99.6901 885 -134.623 876.733 -165.023 860.2C-195.423 843.667 -218.89 820.2 -235.423 789.8C-251.957 759.4 -260.223 724.467 -260.223 685C-260.223 645.533 -251.957 610.6 -235.423 580.2C-218.89 549.8 -195.423 526.333 -165.023 509.8C-134.623 493.267 -99.6901 485 -60.2234 485ZM-26.6234 437C12.8433 437 47.7766 445.267 78.1766 461.8C108.577 478.333 132.043 501.8 148.577 532.2C165.11 562.6 173.377 597.533 173.377 637C173.377 676.467 165.11 711.4 148.577 741.8C132.043 772.2 108.577 795.667 78.1766 812.2C47.7766 828.733 12.8433 837 -26.6234 837C-66.0901 837 -101.023 828.733 -131.423 812.2C-161.823 795.667 -185.29 772.2 -201.823 741.8C-218.357 711.4 -226.623 676.467 -226.623 637C-226.623 597.533 -218.357 562.6 -201.823 532.2C-185.29 501.8 -161.823 478.333 -131.423 461.8C-101.023 445.267 -66.0901 437 -26.6234 437ZM40.5766 341C80.0433 341 114.977 349.267 145.377 365.8C175.777 382.333 199.243 405.8 215.777 436.2C232.31 466.6 240.577 501.533 240.577 541C240.577 580.467 232.31 615.4 215.777 645.8C199.243 676.2 175.777 699.667 145.377 716.2C114.977 732.733 80.0433 741 40.5766 741C1.10992 741 -33.8235 732.733 -64.2234 716.2C-94.6235 699.667 -118.09 676.2 -134.623 645.8C-151.157 615.4 -159.423 580.467 -159.423 541C-159.423 501.533 -151.157 466.6 -134.623 436.2C-118.09 405.8 -94.6235 382.333 -64.2234 365.8C-33.8235 349.267 1.10992 341 40.5766 341ZM6.97656 389C46.4432 389 81.3766 397.267 111.777 413.8C142.177 430.333 165.643 453.8 182.177 484.2C198.71 514.6 206.977 549.533 206.977 589C206.977 628.467 198.71 663.4 182.177 693.8C165.643 724.2 142.177 747.667 111.777 764.2C81.3766 780.733 46.4432 789 6.97656 789C-32.4901 789 -67.4234 780.733 -97.8234 764.2C-128.223 747.667 -151.69 724.2 -168.223 693.8C-184.757 663.4 -193.023 628.467 -193.023 589C-193.023 549.533 -184.757 514.6 -168.223 484.2C-151.69 453.8 -128.223 430.333 -97.8234 413.8C-67.4234 397.267 -32.4901 389 6.97656 389ZM222.977 629C262.977 629 297.91 637.267 327.777 653.8C358.177 670.333 381.643 693.8 398.177 724.2C414.71 754.067 422.977 789 422.977 829C422.977 869 414.71 903.933 398.177 933.8C381.643 964.2 358.177 987.667 327.777 1004.2C297.91 1020.73 262.977 1029 222.977 1029C182.977 1029 147.777 1020.73 117.377 1004.2C87.5099 987.667 64.3099 964.2 47.7766 933.8C31.2433 903.933 22.9766 869 22.9766 829C22.9766 789 31.2433 754.067 47.7766 724.2C64.3099 693.8 87.5099 670.333 117.377 653.8C147.777 637.267 182.977 629 222.977 629ZM-17.0234 629C22.9766 629 57.9099 637.267 87.7766 653.8C118.177 670.333 141.643 693.8 158.177 724.2C174.71 754.067 182.977 789 182.977 829C182.977 869 174.71 903.933 158.177 933.8C141.643 964.2 118.177 987.667 87.7766 1004.2C57.9099 1020.73 22.9766 1029 -17.0234 1029C-57.0234 1029 -92.2234 1020.73 -122.623 1004.2C-152.49 987.667 -175.69 964.2 -192.223 933.8C-208.757 903.933 -217.023 869 -217.023 829C-217.023 789 -208.757 754.067 -192.223 724.2C-175.69 693.8 -152.49 670.333 -122.623 653.8C-92.2234 637.267 -57.0234 629 -17.0234 629ZM174.977 629.8C214.977 629.8 249.91 638.067 279.777 654.6C310.177 671.133 333.643 694.6 350.177 725C366.71 754.867 374.977 789.8 374.977 829.8C374.977 869.8 366.71 904.733 350.177 934.6C333.643 965 310.177 988.467 279.777 1005C249.91 1021.53 214.977 1029.8 174.977 1029.8C134.977 1029.8 99.7766 1021.53 69.3766 1005C39.5099 988.467 16.3099 965 -0.22345 934.6C-16.7568 904.733 -25.0234 869.8 -25.0234 829.8C-25.0234 789.8 -16.7568 754.867 -0.22345 725C16.3099 694.6 39.5099 671.133 69.3766 654.6C99.7766 638.067 134.977 629.8 174.977 629.8ZM539.777 245C579.243 245 614.177 253.267 644.577 269.8C674.977 286.333 698.443 309.8 714.977 340.2C731.51 370.6 739.777 405.533 739.777 445C739.777 484.467 731.51 519.4 714.977 549.8C698.443 580.2 674.977 603.667 644.577 620.2C614.177 636.733 579.243 645 539.777 645C500.31 645 465.377 636.733 434.977 620.2C404.577 603.667 381.11 580.2 364.577 549.8C348.043 519.4 339.777 484.467 339.777 445C339.777 405.533 348.043 370.6 364.577 340.2C381.11 309.8 404.577 286.333 434.977 269.8C465.377 253.267 500.31 245 539.777 245ZM506.177 293C545.643 293 580.577 301.267 610.977 317.8C641.377 334.333 664.843 357.8 681.377 388.2C697.91 418.6 706.177 453.533 706.177 493C706.177 532.467 697.91 567.4 681.377 597.8C664.843 628.2 641.377 651.667 610.977 668.2C580.577 684.733 545.643 693 506.177 693C466.71 693 431.777 684.733 401.377 668.2C370.977 651.667 347.51 628.2 330.977 597.8C314.443 567.4 306.177 532.467 306.177 493C306.177 453.533 314.443 418.6 330.977 388.2C347.51 357.8 370.977 334.333 401.377 317.8C431.777 301.267 466.71 293 506.177 293ZM45.3766 677C85.3766 677 120.31 685.267 150.177 701.8C180.577 718.333 204.043 741.8 220.577 772.2C237.11 802.067 245.377 837 245.377 877C245.377 917 237.11 951.933 220.577 981.8C204.043 1012.2 180.577 1035.67 150.177 1052.2C120.31 1068.73 85.3766 1077 45.3766 1077C5.37659 1077 -29.8234 1068.73 -60.2234 1052.2C-90.0901 1035.67 -113.29 1012.2 -129.823 981.8C-146.357 951.933 -154.623 917 -154.623 877C-154.623 837 -146.357 802.067 -129.823 772.2C-113.29 741.8 -90.0901 718.333 -60.2234 701.8C-29.8234 685.267 5.37659 677 45.3766 677ZM-65.0234 629C-25.0234 629 9.90993 637.267 39.7766 653.8C70.1766 670.333 93.6433 693.8 110.177 724.2C126.71 754.067 134.977 789 134.977 829C134.977 869 126.71 903.933 110.177 933.8C93.6433 964.2 70.1766 987.667 39.7766 1004.2C9.90993 1020.73 -25.0234 1029 -65.0234 1029C-105.023 1029 -140.223 1020.73 -170.623 1004.2C-200.49 987.667 -223.69 964.2 -240.223 933.8C-256.757 903.933 -265.023 869 -265.023 829C-265.023 789 -256.757 754.067 -240.223 724.2C-223.69 693.8 -200.49 670.333 -170.623 653.8C-140.223 637.267 -105.023 629 -65.0234 629ZM107.777 245C147.243 245 182.177 253.267 212.577 269.8C242.977 286.333 266.443 309.8 282.977 340.2C299.51 370.6 307.777 405.533 307.777 445C307.777 484.467 299.51 519.4 282.977 549.8C266.443 580.2 242.977 603.667 212.577 620.2C182.177 636.733 147.243 645 107.777 645C68.3099 645 33.3766 636.733 2.97656 620.2C-27.4234 603.667 -50.8901 580.2 -67.4234 549.8C-83.9567 519.4 -92.2234 484.467 -92.2234 445C-92.2234 405.533 -83.9567 370.6 -67.4234 340.2C-50.8901 309.8 -27.4234 286.333 2.97656 269.8C33.3766 253.267 68.3099 245 107.777 245ZM74.1766 293C113.643 293 148.577 301.267 178.977 317.8C209.377 334.333 232.843 357.8 249.377 388.2C265.91 418.6 274.177 453.533 274.177 493C274.177 532.467 265.91 567.4 249.377 597.8C232.843 628.2 209.377 651.667 178.977 668.2C148.577 684.733 113.643 693 74.1766 693C34.7099 693 -0.223408 684.733 -30.6234 668.2C-61.0234 651.667 -84.4901 628.2 -101.023 597.8C-117.557 567.4 -125.823 532.467 -125.823 493C-125.823 453.533 -117.557 418.6 -101.023 388.2C-84.4901 357.8 -61.0234 334.333 -30.6234 317.8C-0.223408 301.267 34.7099 293 74.1766 293ZM-2.62341 677C37.3766 677 72.3099 685.267 102.177 701.8C132.577 718.333 156.043 741.8 172.577 772.2C189.11 802.067 197.377 837 197.377 877C197.377 917 189.11 951.933 172.577 981.8C156.043 1012.2 132.577 1035.67 102.177 1052.2C72.3099 1068.73 37.3766 1077 -2.62341 1077C-42.6234 1077 -77.8234 1068.73 -108.223 1052.2C-138.09 1035.67 -161.29 1012.2 -177.823 981.8C-194.357 951.933 -202.623 917 -202.623 877C-202.623 837 -194.357 802.067 -177.823 772.2C-161.29 741.8 -138.09 718.333 -108.223 701.8C-77.8234 685.267 -42.6234 677 -2.62341 677ZM-79.4235 581C-39.9568 581 -5.02342 589.267 25.3766 605.8C55.7766 622.333 79.2433 645.8 95.7766 676.2C112.31 706.6 120.577 741.533 120.577 781C120.577 820.467 112.31 855.4 95.7766 885.8C79.2433 916.2 55.7766 939.667 25.3766 956.2C-5.02342 972.733 -39.9568 981 -79.4235 981C-118.89 981 -153.823 972.733 -184.223 956.2C-214.623 939.667 -238.09 916.2 -254.623 885.8C-271.157 855.4 -279.423 820.467 -279.423 781C-279.423 741.533 -271.157 706.6 -254.623 676.2C-238.09 645.8 -214.623 622.333 -184.223 605.8C-153.823 589.267 -118.89 581 -79.4235 581ZM-45.8234 533C-6.35677 533 28.5765 541.267 58.9766 557.8C89.3766 574.333 112.843 597.8 129.377 628.2C145.91 658.6 154.177 693.533 154.177 733C154.177 772.467 145.91 807.4 129.377 837.8C112.843 868.2 89.3766 891.667 58.9766 908.2C28.5765 924.733 -6.35677 933 -45.8234 933C-85.2901 933 -120.223 924.733 -150.623 908.2C-181.023 891.667 -204.49 868.2 -221.023 837.8C-237.557 807.4 -245.823 772.467 -245.823 733C-245.823 693.533 -237.557 658.6 -221.023 628.2C-204.49 597.8 -181.023 574.333 -150.623 557.8C-120.223 541.267 -85.2901 533 -45.8234 533Z" fill="white"/>
<path d="M1225.8 293C1265.27 293 1300.2 301.267 1330.6 317.8C1361 334.333 1384.47 357.8 1401 388.2C1417.53 418.6 1425.8 453.533 1425.8 493C1425.8 532.467 1417.53 567.4 1401 597.8C1384.47 628.2 1361 651.667 1330.6 668.2C1300.2 684.733 1265.27 693 1225.8 693C1186.33 693 1151.4 684.733 1121 668.2C1090.6 651.667 1067.13 628.2 1050.6 597.8C1034.07 567.4 1025.8 532.467 1025.8 493C1025.8 453.533 1034.07 418.6 1050.6 388.2C1067.13 357.8 1090.6 334.333 1121 317.8C1151.4 301.267 1186.33 293 1225.8 293ZM1297.8 53C1337.27 53 1372.2 61.2667 1402.6 77.8C1433 94.3334 1456.47 117.8 1473 148.2C1489.54 178.6 1497.8 213.533 1497.8 253C1497.8 292.467 1489.54 327.4 1473 357.8C1456.47 388.2 1433 411.667 1402.6 428.2C1372.2 444.733 1337.27 453 1297.8 453C1258.33 453 1223.4 444.733 1193 428.2C1162.6 411.667 1139.13 388.2 1122.6 357.8C1106.07 327.4 1097.8 292.467 1097.8 253C1097.8 213.533 1106.07 178.6 1122.6 148.2C1139.13 117.8 1162.6 94.3334 1193 77.8C1223.4 61.2667 1258.33 53 1297.8 53ZM918.602 389C958.068 389 993.002 397.267 1023.4 413.8C1053.8 430.333 1077.27 453.8 1093.8 484.2C1110.33 514.6 1118.6 549.533 1118.6 589C1118.6 628.467 1110.33 663.4 1093.8 693.8C1077.27 724.2 1053.8 747.667 1023.4 764.2C993.002 780.733 958.068 789 918.602 789C879.135 789 844.202 780.733 813.802 764.2C783.402 747.667 759.935 724.2 743.402 693.8C726.868 663.4 718.602 628.467 718.602 589C718.602 549.533 726.868 514.6 743.402 484.2C759.935 453.8 783.402 430.333 813.802 413.8C844.202 397.267 879.135 389 918.602 389ZM1038.6 629C1078.6 629 1113.53 637.267 1143.4 653.8C1173.8 670.333 1197.27 693.8 1213.8 724.2C1230.33 754.067 1238.6 789 1238.6 829C1238.6 869 1230.33 903.933 1213.8 933.8C1197.27 964.2 1173.8 987.667 1143.4 1004.2C1113.53 1020.73 1078.6 1029 1038.6 1029C998.602 1029 963.402 1020.73 933.002 1004.2C903.135 987.667 879.935 964.2 863.402 933.8C846.868 903.933 838.602 869 838.602 829C838.602 789 846.868 754.067 863.402 724.2C879.935 693.8 903.135 670.333 933.002 653.8C963.402 637.267 998.602 629 1038.6 629ZM1053 677C1093 677 1127.93 685.267 1157.8 701.8C1188.2 718.333 1211.67 741.8 1228.2 772.2C1244.74 802.067 1253 837 1253 877C1253 917 1244.74 951.933 1228.2 981.8C1211.67 1012.2 1188.2 1035.67 1157.8 1052.2C1127.93 1068.73 1093 1077 1053 1077C1013 1077 977.802 1068.73 947.402 1052.2C917.535 1035.67 894.335 1012.2 877.802 981.8C861.268 951.933 853.002 917 853.002 877C853.002 837 861.268 802.067 877.802 772.2C894.335 741.8 917.535 718.333 947.402 701.8C977.802 685.267 1013 677 1053 677ZM1072.2 581C1111.67 581 1146.6 589.267 1177 605.8C1207.4 622.333 1230.87 645.8 1247.4 676.2C1263.93 706.6 1272.2 741.533 1272.2 781C1272.2 820.467 1263.93 855.4 1247.4 885.8C1230.87 916.2 1207.4 939.667 1177 956.2C1146.6 972.733 1111.67 981 1072.2 981C1032.73 981 997.802 972.733 967.402 956.2C937.002 939.667 913.535 916.2 897.002 885.8C880.468 855.4 872.202 820.467 872.202 781C872.202 741.533 880.468 706.6 897.002 676.2C913.535 645.8 937.002 622.333 967.402 605.8C997.802 589.267 1032.73 581 1072.2 581ZM1105.8 533C1145.27 533 1180.2 541.267 1210.6 557.8C1241 574.333 1264.47 597.8 1281 628.2C1297.54 658.6 1305.8 693.533 1305.8 733C1305.8 772.467 1297.54 807.4 1281 837.8C1264.47 868.2 1241 891.667 1210.6 908.2C1180.2 924.733 1145.27 933 1105.8 933C1066.33 933 1031.4 924.733 1001 908.2C970.602 891.667 947.135 868.2 930.602 837.8C914.068 807.4 905.802 772.467 905.802 733C905.802 693.533 914.068 658.6 930.602 628.2C947.135 597.8 970.602 574.333 1001 557.8C1031.4 541.267 1066.33 533 1105.8 533ZM1144.2 341C1183.67 341 1218.6 349.267 1249 365.8C1279.4 382.333 1302.87 405.8 1319.4 436.2C1335.93 466.6 1344.2 501.533 1344.2 541C1344.2 580.467 1335.93 615.4 1319.4 645.8C1302.87 676.2 1279.4 699.667 1249 716.2C1218.6 732.733 1183.67 741 1144.2 741C1104.73 741 1069.8 732.733 1039.4 716.2C1009 699.667 985.535 676.2 969.002 645.8C952.468 615.4 944.202 580.467 944.202 541C944.202 501.533 952.468 466.6 969.002 436.2C985.535 405.8 1009 382.333 1039.4 365.8C1069.8 349.267 1104.73 341 1144.2 341ZM1096.2 341C1135.67 341 1170.6 349.267 1201 365.8C1231.4 382.333 1254.87 405.8 1271.4 436.2C1287.93 466.6 1296.2 501.533 1296.2 541C1296.2 580.467 1287.93 615.4 1271.4 645.8C1254.87 676.2 1231.4 699.667 1201 716.2C1170.6 732.733 1135.67 741 1096.2 741C1056.73 741 1021.8 732.733 991.402 716.2C961.002 699.667 937.535 676.2 921.002 645.8C904.468 615.4 896.202 580.467 896.202 541C896.202 501.533 904.468 466.6 921.002 436.2C937.535 405.8 961.002 382.333 991.402 365.8C1021.8 349.267 1056.73 341 1096.2 341ZM1048.2 341C1087.67 341 1122.6 349.267 1153 365.8C1183.4 382.333 1206.87 405.8 1223.4 436.2C1239.93 466.6 1248.2 501.533 1248.2 541C1248.2 580.467 1239.93 615.4 1223.4 645.8C1206.87 676.2 1183.4 699.667 1153 716.2C1122.6 732.733 1087.67 741 1048.2 741C1008.73 741 973.802 732.733 943.402 716.2C913.002 699.667 889.535 676.2 873.002 645.8C856.468 615.4 848.202 580.467 848.202 541C848.202 501.533 856.468 466.6 873.002 436.2C889.535 405.8 913.002 382.333 943.402 365.8C973.802 349.267 1008.73 341 1048.2 341ZM1000.2 341C1039.67 341 1074.6 349.267 1105 365.8C1135.4 382.333 1158.87 405.8 1175.4 436.2C1191.93 466.6 1200.2 501.533 1200.2 541C1200.2 580.467 1191.93 615.4 1175.4 645.8C1158.87 676.2 1135.4 699.667 1105 716.2C1074.6 732.733 1039.67 741 1000.2 741C960.735 741 925.802 732.733 895.402 716.2C865.002 699.667 841.535 676.2 825.002 645.8C808.468 615.4 800.202 580.467 800.202 541C800.202 501.533 808.468 466.6 825.002 436.2C841.535 405.8 865.002 382.333 895.402 365.8C925.802 349.267 960.735 341 1000.2 341ZM1312.2 101C1351.67 101 1386.6 109.267 1417 125.8C1447.4 142.333 1470.87 165.8 1487.4 196.2C1503.93 226.6 1512.2 261.533 1512.2 301C1512.2 340.467 1503.93 375.4 1487.4 405.8C1470.87 436.2 1447.4 459.667 1417 476.2C1386.6 492.733 1351.67 501 1312.2 501C1272.73 501 1237.8 492.733 1207.4 476.2C1177 459.667 1153.54 436.2 1137 405.8C1120.47 375.4 1112.2 340.467 1112.2 301C1112.2 261.533 1120.47 226.6 1137 196.2C1153.54 165.8 1177 142.333 1207.4 125.8C1237.8 109.267 1272.73 101 1312.2 101ZM1120.2 101C1159.67 101 1194.6 109.267 1225 125.8C1255.4 142.333 1278.87 165.8 1295.4 196.2C1311.93 226.6 1320.2 261.533 1320.2 301C1320.2 340.467 1311.93 375.4 1295.4 405.8C1278.87 436.2 1255.4 459.667 1225 476.2C1194.6 492.733 1159.67 501 1120.2 501C1080.73 501 1045.8 492.733 1015.4 476.2C985.002 459.667 961.535 436.2 945.002 405.8C928.468 375.4 920.202 340.467 920.202 301C920.202 261.533 928.468 226.6 945.002 196.2C961.535 165.8 985.002 142.333 1015.4 125.8C1045.8 109.267 1080.73 101 1120.2 101ZM1341 197C1380.47 197 1415.4 205.267 1445.8 221.8C1476.2 238.333 1499.67 261.8 1516.2 292.2C1532.74 322.6 1541 357.533 1541 397C1541 436.467 1532.74 471.4 1516.2 501.8C1499.67 532.2 1476.2 555.667 1445.8 572.2C1415.4 588.733 1380.47 597 1341 597C1301.54 597 1266.6 588.733 1236.2 572.2C1205.8 555.667 1182.33 532.2 1165.8 501.8C1149.27 471.4 1141 436.467 1141 397C1141 357.533 1149.27 322.6 1165.8 292.2C1182.33 261.8 1205.8 238.333 1236.2 221.8C1266.6 205.267 1301.54 197 1341 197ZM1307.4 245C1346.87 245 1381.8 253.267 1412.2 269.8C1442.6 286.333 1466.07 309.8 1482.6 340.2C1499.13 370.6 1507.4 405.533 1507.4 445C1507.4 484.467 1499.13 519.4 1482.6 549.8C1466.07 580.2 1442.6 603.667 1412.2 620.2C1381.8 636.733 1346.87 645 1307.4 645C1267.93 645 1233 636.733 1202.6 620.2C1172.2 603.667 1148.73 580.2 1132.2 549.8C1115.67 519.4 1107.4 484.467 1107.4 445C1107.4 405.533 1115.67 370.6 1132.2 340.2C1148.73 309.8 1172.2 286.333 1202.6 269.8C1233 253.267 1267.93 245 1307.4 245ZM1360.2 101C1399.67 101 1434.6 109.267 1465 125.8C1495.4 142.333 1518.87 165.8 1535.4 196.2C1551.93 226.6 1560.2 261.533 1560.2 301C1560.2 340.467 1551.93 375.4 1535.4 405.8C1518.87 436.2 1495.4 459.667 1465 476.2C1434.6 492.733 1399.67 501 1360.2 501C1320.73 501 1285.8 492.733 1255.4 476.2C1225 459.667 1201.54 436.2 1185 405.8C1168.47 375.4 1160.2 340.467 1160.2 301C1160.2 261.533 1168.47 226.6 1185 196.2C1201.54 165.8 1225 142.333 1255.4 125.8C1285.8 109.267 1320.73 101 1360.2 101ZM1072.2 101C1111.67 101 1146.6 109.267 1177 125.8C1207.4 142.333 1230.87 165.8 1247.4 196.2C1263.93 226.6 1272.2 261.533 1272.2 301C1272.2 340.467 1263.93 375.4 1247.4 405.8C1230.87 436.2 1207.4 459.667 1177 476.2C1146.6 492.733 1111.67 501 1072.2 501C1032.73 501 997.802 492.733 967.402 476.2C937.002 459.667 913.535 436.2 897.002 405.8C880.468 375.4 872.202 340.467 872.202 301C872.202 261.533 880.468 226.6 897.002 196.2C913.535 165.8 937.002 142.333 967.402 125.8C997.802 109.267 1032.73 101 1072.2 101ZM1249.8 53C1289.27 53 1324.2 61.2667 1354.6 77.8C1385 94.3334 1408.47 117.8 1425 148.2C1441.53 178.6 1449.8 213.533 1449.8 253C1449.8 292.467 1441.53 327.4 1425 357.8C1408.47 388.2 1385 411.667 1354.6 428.2C1324.2 444.733 1289.27 453 1249.8 453C1210.33 453 1175.4 444.733 1145 428.2C1114.6 411.667 1091.13 388.2 1074.6 357.8C1058.07 327.4 1049.8 292.467 1049.8 253C1049.8 213.533 1058.07 178.6 1074.6 148.2C1091.13 117.8 1114.6 94.3334 1145 77.8C1175.4 61.2667 1210.33 53 1249.8 53ZM1201.8 53C1241.27 53 1276.2 61.2667 1306.6 77.8C1337 94.3334 1360.47 117.8 1377 148.2C1393.54 178.6 1401.8 213.533 1401.8 253C1401.8 292.467 1393.54 327.4 1377 357.8C1360.47 388.2 1337 411.667 1306.6 428.2C1276.2 444.733 1241.27 453 1201.8 453C1162.33 453 1127.4 444.733 1097 428.2C1066.6 411.667 1043.13 388.2 1026.6 357.8C1010.07 327.4 1001.8 292.467 1001.8 253C1001.8 213.533 1010.07 178.6 1026.6 148.2C1043.13 117.8 1066.6 94.3334 1097 77.8C1127.4 61.2667 1162.33 53 1201.8 53ZM755.402 485C794.868 485 829.802 493.267 860.202 509.8C890.602 526.333 914.068 549.8 930.602 580.2C947.135 610.6 955.402 645.533 955.402 685C955.402 724.467 947.135 759.4 930.602 789.8C914.068 820.2 890.602 843.667 860.202 860.2C829.802 876.733 794.868 885 755.402 885C715.935 885 681.002 876.733 650.602 860.2C620.202 843.667 596.735 820.2 580.202 789.8C563.668 759.4 555.402 724.467 555.402 685C555.402 645.533 563.668 610.6 580.202 580.2C596.735 549.8 620.202 526.333 650.602 509.8C681.002 493.267 715.935 485 755.402 485ZM837.002 437C876.468 437 911.402 445.267 941.802 461.8C972.202 478.333 995.668 501.8 1012.2 532.2C1028.73 562.6 1037 597.533 1037 637C1037 676.467 1028.73 711.4 1012.2 741.8C995.668 772.2 972.202 795.667 941.802 812.2C911.402 828.733 876.468 837 837.002 837C797.535 837 762.602 828.733 732.202 812.2C701.802 795.667 678.335 772.2 661.802 741.8C645.268 711.4 637.002 676.467 637.002 637C637.002 597.533 645.268 562.6 661.802 532.2C678.335 501.8 701.802 478.333 732.202 461.8C762.602 445.267 797.535 437 837.002 437ZM870.602 389C910.068 389 945.002 397.267 975.402 413.8C1005.8 430.333 1029.27 453.8 1045.8 484.2C1062.33 514.6 1070.6 549.533 1070.6 589C1070.6 628.467 1062.33 663.4 1045.8 693.8C1029.27 724.2 1005.8 747.667 975.402 764.2C945.002 780.733 910.068 789 870.602 789C831.135 789 796.202 780.733 765.802 764.2C735.402 747.667 711.935 724.2 695.402 693.8C678.868 663.4 670.602 628.467 670.602 589C670.602 549.533 678.868 514.6 695.402 484.2C711.935 453.8 735.402 430.333 765.802 413.8C796.202 397.267 831.135 389 870.602 389ZM942.602 629C982.602 629 1017.53 637.267 1047.4 653.8C1077.8 670.333 1101.27 693.8 1117.8 724.2C1134.33 754.067 1142.6 789 1142.6 829C1142.6 869 1134.33 903.933 1117.8 933.8C1101.27 964.2 1077.8 987.667 1047.4 1004.2C1017.53 1020.73 982.602 1029 942.602 1029C902.602 1029 867.402 1020.73 837.002 1004.2C807.135 987.667 783.935 964.2 767.402 933.8C750.868 903.933 742.602 869 742.602 829C742.602 789 750.868 754.067 767.402 724.2C783.935 693.8 807.135 670.333 837.002 653.8C867.402 637.267 902.602 629 942.602 629ZM750.602 629C790.602 629 825.535 637.267 855.402 653.8C885.802 670.333 909.268 693.8 925.802 724.2C942.335 754.067 950.602 789 950.602 829C950.602 869 942.335 903.933 925.802 933.8C909.268 964.2 885.802 987.667 855.402 1004.2C825.535 1020.73 790.602 1029 750.602 1029C710.602 1029 675.402 1020.73 645.002 1004.2C615.135 987.667 591.935 964.2 575.402 933.8C558.868 903.933 550.602 869 550.602 829C550.602 789 558.868 754.067 575.402 724.2C591.935 693.8 615.135 670.333 645.002 653.8C675.402 637.267 710.602 629 750.602 629ZM1139.4 485C1178.87 485 1213.8 493.267 1244.2 509.8C1274.6 526.333 1298.07 549.8 1314.6 580.2C1331.13 610.6 1339.4 645.533 1339.4 685C1339.4 724.467 1331.13 759.4 1314.6 789.8C1298.07 820.2 1274.6 843.667 1244.2 860.2C1213.8 876.733 1178.87 885 1139.4 885C1099.93 885 1065 876.733 1034.6 860.2C1004.2 843.667 980.735 820.2 964.202 789.8C947.668 759.4 939.402 724.467 939.402 685C939.402 645.533 947.668 610.6 964.202 580.2C980.735 549.8 1004.2 526.333 1034.6 509.8C1065 493.267 1099.93 485 1139.4 485ZM894.602 629.8C934.602 629.8 969.535 638.067 999.402 654.6C1029.8 671.133 1053.27 694.6 1069.8 725C1086.33 754.867 1094.6 789.8 1094.6 829.8C1094.6 869.8 1086.33 904.733 1069.8 934.6C1053.27 965 1029.8 988.467 999.402 1005C969.535 1021.53 934.602 1029.8 894.602 1029.8C854.602 1029.8 819.402 1021.53 789.002 1005C759.135 988.467 735.935 965 719.402 934.6C702.868 904.733 694.602 869.8 694.602 829.8C694.602 789.8 702.868 754.867 719.402 725C735.935 694.6 759.135 671.133 789.002 654.6C819.402 638.067 854.602 629.8 894.602 629.8ZM1173 437C1212.47 437 1247.4 445.267 1277.8 461.8C1308.2 478.333 1331.67 501.8 1348.2 532.2C1364.74 562.6 1373 597.533 1373 637C1373 676.467 1364.74 711.4 1348.2 741.8C1331.67 772.2 1308.2 795.667 1277.8 812.2C1247.4 828.733 1212.47 837 1173 837C1133.54 837 1098.6 828.733 1068.2 812.2C1037.8 795.667 1014.33 772.2 997.802 741.8C981.268 711.4 973.002 676.467 973.002 637C973.002 597.533 981.268 562.6 997.802 532.2C1014.33 501.8 1037.8 478.333 1068.2 461.8C1098.6 445.267 1133.54 437 1173 437ZM1326.6 149C1366.07 149 1401 157.267 1431.4 173.8C1461.8 190.333 1485.27 213.8 1501.8 244.2C1518.33 274.6 1526.6 309.533 1526.6 349C1526.6 388.467 1518.33 423.4 1501.8 453.8C1485.27 484.2 1461.8 507.667 1431.4 524.2C1401 540.733 1366.07 549 1326.6 549C1287.13 549 1252.2 540.733 1221.8 524.2C1191.4 507.667 1167.93 484.2 1151.4 453.8C1134.87 423.4 1126.6 388.467 1126.6 349C1126.6 309.533 1134.87 274.6 1151.4 244.2C1167.93 213.8 1191.4 190.333 1221.8 173.8C1252.2 157.267 1287.13 149 1326.6 149ZM1273.8 293C1313.27 293 1348.2 301.267 1378.6 317.8C1409 334.333 1432.47 357.8 1449 388.2C1465.54 418.6 1473.8 453.533 1473.8 493C1473.8 532.467 1465.54 567.4 1449 597.8C1432.47 628.2 1409 651.667 1378.6 668.2C1348.2 684.733 1313.27 693 1273.8 693C1234.33 693 1199.4 684.733 1169 668.2C1138.6 651.667 1115.13 628.2 1098.6 597.8C1082.07 567.4 1073.8 532.467 1073.8 493C1073.8 453.533 1082.07 418.6 1098.6 388.2C1115.13 357.8 1138.6 334.333 1169 317.8C1199.4 301.267 1234.33 293 1273.8 293ZM813.002 677C853.002 677 887.935 685.267 917.802 701.8C948.202 718.333 971.668 741.8 988.202 772.2C1004.73 802.067 1013 837 1013 877C1013 917 1004.73 951.933 988.202 981.8C971.668 1012.2 948.202 1035.67 917.802 1052.2C887.935 1068.73 853.002 1077 813.002 1077C773.002 1077 737.802 1068.73 707.402 1052.2C677.535 1035.67 654.335 1012.2 637.802 981.8C621.268 951.933 613.002 917 613.002 877C613.002 837 621.268 802.067 637.802 772.2C654.335 741.8 677.535 718.333 707.402 701.8C737.802 685.267 773.002 677 813.002 677ZM1024.2 581C1063.67 581 1098.6 589.267 1129 605.8C1159.4 622.333 1182.87 645.8 1199.4 676.2C1215.93 706.6 1224.2 741.533 1224.2 781C1224.2 820.467 1215.93 855.4 1199.4 885.8C1182.87 916.2 1159.4 939.667 1129 956.2C1098.6 972.733 1063.67 981 1024.2 981C984.735 981 949.802 972.733 919.402 956.2C889.002 939.667 865.535 916.2 849.002 885.8C832.468 855.4 824.202 820.467 824.202 781C824.202 741.533 832.468 706.6 849.002 676.2C865.535 645.8 889.002 622.333 919.402 605.8C949.802 589.267 984.735 581 1024.2 581ZM1240.2 341C1279.67 341 1314.6 349.267 1345 365.8C1375.4 382.333 1398.87 405.8 1415.4 436.2C1431.93 466.6 1440.2 501.533 1440.2 541C1440.2 580.467 1431.93 615.4 1415.4 645.8C1398.87 676.2 1375.4 699.667 1345 716.2C1314.6 732.733 1279.67 741 1240.2 741C1200.73 741 1165.8 732.733 1135.4 716.2C1105 699.667 1081.53 676.2 1065 645.8C1048.47 615.4 1040.2 580.467 1040.2 541C1040.2 501.533 1048.47 466.6 1065 436.2C1081.53 405.8 1105 382.333 1135.4 365.8C1165.8 349.267 1200.73 341 1240.2 341ZM1206.6 389C1246.07 389 1281 397.267 1311.4 413.8C1341.8 430.333 1365.27 453.8 1381.8 484.2C1398.34 514.6 1406.6 549.533 1406.6 589C1406.6 628.467 1398.34 663.4 1381.8 693.8C1365.27 724.2 1341.8 747.667 1311.4 764.2C1281 780.733 1246.07 789 1206.6 789C1167.13 789 1132.2 780.733 1101.8 764.2C1071.4 747.667 1047.93 724.2 1031.4 693.8C1014.87 663.4 1006.6 628.467 1006.6 589C1006.6 549.533 1014.87 514.6 1031.4 484.2C1047.93 453.8 1071.4 430.333 1101.8 413.8C1132.2 397.267 1167.13 389 1206.6 389ZM702.602 629C742.602 629 777.535 637.267 807.402 653.8C837.802 670.333 861.268 693.8 877.802 724.2C894.335 754.067 902.602 789 902.602 829C902.602 869 894.335 903.933 877.802 933.8C861.268 964.2 837.802 987.667 807.402 1004.2C777.535 1020.73 742.602 1029 702.602 1029C662.602 1029 627.402 1020.73 597.002 1004.2C567.135 987.667 543.935 964.2 527.402 933.8C510.868 903.933 502.602 869 502.602 829C502.602 789 510.868 754.067 527.402 724.2C543.935 693.8 567.135 670.333 597.002 653.8C627.402 637.267 662.602 629 702.602 629ZM765.002 677C805.002 677 839.935 685.267 869.802 701.8C900.202 718.333 923.668 741.8 940.202 772.2C956.735 802.067 965.002 837 965.002 877C965.002 917 956.735 951.933 940.202 981.8C923.668 1012.2 900.202 1035.67 869.802 1052.2C839.935 1068.73 805.002 1077 765.002 1077C725.002 1077 689.802 1068.73 659.402 1052.2C629.535 1035.67 606.335 1012.2 589.802 981.8C573.268 951.933 565.002 917 565.002 877C565.002 837 573.268 802.067 589.802 772.2C606.335 741.8 629.535 718.333 659.402 701.8C689.802 685.267 725.002 677 765.002 677ZM736.202 581C775.668 581 810.602 589.267 841.002 605.8C871.402 622.333 894.868 645.8 911.402 676.2C927.935 706.6 936.202 741.533 936.202 781C936.202 820.467 927.935 855.4 911.402 885.8C894.868 916.2 871.402 939.667 841.002 956.2C810.602 972.733 775.668 981 736.202 981C696.735 981 661.802 972.733 631.402 956.2C601.002 939.667 577.535 916.2 561.002 885.8C544.468 855.4 536.202 820.467 536.202 781C536.202 741.533 544.468 706.6 561.002 676.2C577.535 645.8 601.002 622.333 631.402 605.8C661.802 589.267 696.735 581 736.202 581ZM721.802 533C761.268 533 796.202 541.267 826.602 557.8C857.002 574.333 880.468 597.8 897.002 628.2C913.535 658.6 921.802 693.533 921.802 733C921.802 772.467 913.535 807.4 897.002 837.8C880.468 868.2 857.002 891.667 826.602 908.2C796.202 924.733 761.268 933 721.802 933C682.335 933 647.402 924.733 617.002 908.2C586.602 891.667 563.135 868.2 546.602 837.8C530.068 807.4 521.802 772.467 521.802 733C521.802 693.533 530.068 658.6 546.602 628.2C563.135 597.8 586.602 574.333 617.002 557.8C647.402 541.267 682.335 533 721.802 533Z" fill="white"/>
<path d="M2353.43 53C2392.89 53 2427.83 61.2667 2458.23 77.8C2488.63 94.3334 2512.09 117.8 2528.63 148.2C2545.16 178.6 2553.43 213.533 2553.43 253C2553.43 292.467 2545.16 327.4 2528.63 357.8C2512.09 388.2 2488.63 411.667 2458.23 428.2C2427.83 444.733 2392.89 453 2353.43 453C2313.96 453 2279.03 444.733 2248.63 428.2C2218.23 411.667 2194.76 388.2 2178.23 357.8C2161.69 327.4 2153.43 292.467 2153.43 253C2153.43 213.533 2161.69 178.6 2178.23 148.2C2194.76 117.8 2218.23 94.3334 2248.63 77.8C2279.03 61.2667 2313.96 53 2353.43 53ZM2017.43 53C2056.89 53 2091.83 61.2667 2122.23 77.8C2152.63 94.3334 2176.09 117.8 2192.63 148.2C2209.16 178.6 2217.43 213.533 2217.43 253C2217.43 292.467 2209.16 327.4 2192.63 357.8C2176.09 388.2 2152.63 411.667 2122.23 428.2C2091.83 444.733 2056.89 453 2017.43 453C1977.96 453 1943.03 444.733 1912.63 428.2C1882.23 411.667 1858.76 388.2 1842.23 357.8C1825.69 327.4 1817.43 292.467 1817.43 253C1817.43 213.533 1825.69 178.6 1842.23 148.2C1858.76 117.8 1882.23 94.3334 1912.63 77.8C1943.03 61.2667 1977.96 53 2017.43 53ZM2463.83 101C2503.29 101 2538.23 109.267 2568.63 125.8C2599.03 142.333 2622.49 165.8 2639.03 196.2C2655.56 226.6 2663.83 261.533 2663.83 301C2663.83 340.467 2655.56 375.4 2639.03 405.8C2622.49 436.2 2599.03 459.667 2568.63 476.2C2538.23 492.733 2503.29 501 2463.83 501C2424.36 501 2389.43 492.733 2359.03 476.2C2328.63 459.667 2305.16 436.2 2288.63 405.8C2272.09 375.4 2263.83 340.467 2263.83 301C2263.83 261.533 2272.09 226.6 2288.63 196.2C2305.16 165.8 2328.63 142.333 2359.03 125.8C2389.43 109.267 2424.36 101 2463.83 101ZM2108.63 197C2148.09 197 2183.03 205.267 2213.43 221.8C2243.83 238.333 2267.29 261.8 2283.83 292.2C2300.36 322.6 2308.63 357.533 2308.63 397C2308.63 436.467 2300.36 471.4 2283.83 501.8C2267.29 532.2 2243.83 555.667 2213.43 572.2C2183.03 588.733 2148.09 597 2108.63 597C2069.16 597 2034.23 588.733 2003.83 572.2C1973.43 555.667 1949.96 532.2 1933.43 501.8C1916.89 471.4 1908.63 436.467 1908.63 397C1908.63 357.533 1916.89 322.6 1933.43 292.2C1949.96 261.8 1973.43 238.333 2003.83 221.8C2034.23 205.267 2069.16 197 2108.63 197ZM2127.83 101C2167.29 101 2202.23 109.267 2232.63 125.8C2263.03 142.333 2286.49 165.8 2303.03 196.2C2319.56 226.6 2327.83 261.533 2327.83 301C2327.83 340.467 2319.56 375.4 2303.03 405.8C2286.49 436.2 2263.03 459.667 2232.63 476.2C2202.23 492.733 2167.29 501 2127.83 501C2088.36 501 2053.43 492.733 2023.03 476.2C1992.63 459.667 1969.16 436.2 1952.63 405.8C1936.09 375.4 1927.83 340.467 1927.83 301C1927.83 261.533 1936.09 226.6 1952.63 196.2C1969.16 165.8 1992.63 142.333 2023.03 125.8C2053.43 109.267 2088.36 101 2127.83 101ZM2190.23 149C2229.69 149 2264.63 157.267 2295.03 173.8C2325.43 190.333 2348.89 213.8 2365.43 244.2C2381.96 274.6 2390.23 309.533 2390.23 349C2390.23 388.467 2381.96 423.4 2365.43 453.8C2348.89 484.2 2325.43 507.667 2295.03 524.2C2264.63 540.733 2229.69 549 2190.23 549C2150.76 549 2115.83 540.733 2085.43 524.2C2055.03 507.667 2031.56 484.2 2015.03 453.8C1998.49 423.4 1990.23 388.467 1990.23 349C1990.23 309.533 1998.49 274.6 2015.03 244.2C2031.56 213.8 2055.03 190.333 2085.43 173.8C2115.83 157.267 2150.76 149 2190.23 149ZM2271.83 101C2311.29 101 2346.23 109.267 2376.63 125.8C2407.03 142.333 2430.49 165.8 2447.03 196.2C2463.56 226.6 2471.83 261.533 2471.83 301C2471.83 340.467 2463.56 375.4 2447.03 405.8C2430.49 436.2 2407.03 459.667 2376.63 476.2C2346.23 492.733 2311.29 501 2271.83 501C2232.36 501 2197.43 492.733 2167.03 476.2C2136.63 459.667 2113.16 436.2 2096.63 405.8C2080.09 375.4 2071.83 340.467 2071.83 301C2071.83 261.533 2080.09 226.6 2096.63 196.2C2113.16 165.8 2136.63 142.333 2167.03 125.8C2197.43 109.267 2232.36 101 2271.83 101ZM2444.63 197C2484.09 197 2519.03 205.267 2549.43 221.8C2579.83 238.333 2603.29 261.8 2619.83 292.2C2636.36 322.6 2644.63 357.533 2644.63 397C2644.63 436.467 2636.36 471.4 2619.83 501.8C2603.29 532.2 2579.83 555.667 2549.43 572.2C2519.03 588.733 2484.09 597 2444.63 597C2405.16 597 2370.23 588.733 2339.83 572.2C2309.43 555.667 2285.96 532.2 2269.43 501.8C2252.89 471.4 2244.63 436.467 2244.63 397C2244.63 357.533 2252.89 322.6 2269.43 292.2C2285.96 261.8 2309.43 238.333 2339.83 221.8C2370.23 205.267 2405.16 197 2444.63 197ZM2449.43 53C2488.89 53 2523.83 61.2667 2554.23 77.8C2584.63 94.3334 2608.09 117.8 2624.63 148.2C2641.16 178.6 2649.43 213.533 2649.43 253C2649.43 292.467 2641.16 327.4 2624.63 357.8C2608.09 388.2 2584.63 411.667 2554.23 428.2C2523.83 444.733 2488.89 453 2449.43 453C2409.96 453 2375.03 444.733 2344.63 428.2C2314.23 411.667 2290.76 388.2 2274.23 357.8C2257.69 327.4 2249.43 292.467 2249.43 253C2249.43 213.533 2257.69 178.6 2274.23 148.2C2290.76 117.8 2314.23 94.3334 2344.63 77.8C2375.03 61.2667 2409.96 53 2449.43 53ZM2401.43 53C2440.89 53 2475.83 61.2667 2506.23 77.8C2536.63 94.3334 2560.09 117.8 2576.63 148.2C2593.16 178.6 2601.43 213.533 2601.43 253C2601.43 292.467 2593.16 327.4 2576.63 357.8C2560.09 388.2 2536.63 411.667 2506.23 428.2C2475.83 444.733 2440.89 453 2401.43 453C2361.96 453 2327.03 444.733 2296.63 428.2C2266.23 411.667 2242.76 388.2 2226.23 357.8C2209.69 327.4 2201.43 292.467 2201.43 253C2201.43 213.533 2209.69 178.6 2226.23 148.2C2242.76 117.8 2266.23 94.3334 2296.63 77.8C2327.03 61.2667 2361.96 53 2401.43 53ZM2430.23 149C2469.69 149 2504.63 157.267 2535.03 173.8C2565.43 190.333 2588.89 213.8 2605.43 244.2C2621.96 274.6 2630.23 309.533 2630.23 349C2630.23 388.467 2621.96 423.4 2605.43 453.8C2588.89 484.2 2565.43 507.667 2535.03 524.2C2504.63 540.733 2469.69 549 2430.23 549C2390.76 549 2355.83 540.733 2325.43 524.2C2295.03 507.667 2271.56 484.2 2255.03 453.8C2238.49 423.4 2230.23 388.467 2230.23 349C2230.23 309.533 2238.49 274.6 2255.03 244.2C2271.56 213.8 2295.03 190.333 2325.43 173.8C2355.83 157.267 2390.76 149 2430.23 149ZM1907.03 485C1946.49 485 1981.43 493.267 2011.83 509.8C2042.23 526.333 2065.69 549.8 2082.23 580.2C2098.76 610.6 2107.03 645.533 2107.03 685C2107.03 724.467 2098.76 759.4 2082.23 789.8C2065.69 820.2 2042.23 843.667 2011.83 860.2C1981.43 876.733 1946.49 885 1907.03 885C1867.56 885 1832.63 876.733 1802.23 860.2C1771.83 843.667 1748.36 820.2 1731.83 789.8C1715.29 759.4 1707.03 724.467 1707.03 685C1707.03 645.533 1715.29 610.6 1731.83 580.2C1748.36 549.8 1771.83 526.333 1802.23 509.8C1832.63 493.267 1867.56 485 1907.03 485ZM1806.23 629C1846.23 629 1881.16 637.267 1911.03 653.8C1941.43 670.333 1964.89 693.8 1981.43 724.2C1997.96 754.067 2006.23 789 2006.23 829C2006.23 869 1997.96 903.933 1981.43 933.8C1964.89 964.2 1941.43 987.667 1911.03 1004.2C1881.16 1020.73 1846.23 1029 1806.23 1029C1766.23 1029 1731.03 1020.73 1700.63 1004.2C1670.76 987.667 1647.56 964.2 1631.03 933.8C1614.49 903.933 1606.23 869 1606.23 829C1606.23 789 1614.49 754.067 1631.03 724.2C1647.56 693.8 1670.76 670.333 1700.63 653.8C1731.03 637.267 1766.23 629 1806.23 629ZM1940.63 437C1980.09 437 2015.03 445.267 2045.43 461.8C2075.83 478.333 2099.29 501.8 2115.83 532.2C2132.36 562.6 2140.63 597.533 2140.63 637C2140.63 676.467 2132.36 711.4 2115.83 741.8C2099.29 772.2 2075.83 795.667 2045.43 812.2C2015.03 828.733 1980.09 837 1940.63 837C1901.16 837 1866.23 828.733 1835.83 812.2C1805.43 795.667 1781.96 772.2 1765.43 741.8C1748.89 711.4 1740.63 676.467 1740.63 637C1740.63 597.533 1748.89 562.6 1765.43 532.2C1781.96 501.8 1805.43 478.333 1835.83 461.8C1866.23 445.267 1901.16 437 1940.63 437ZM2075.03 245C2114.49 245 2149.43 253.267 2179.83 269.8C2210.23 286.333 2233.69 309.8 2250.23 340.2C2266.76 370.6 2275.03 405.533 2275.03 445C2275.03 484.467 2266.76 519.4 2250.23 549.8C2233.69 580.2 2210.23 603.667 2179.83 620.2C2149.43 636.733 2114.49 645 2075.03 645C2035.56 645 2000.63 636.733 1970.23 620.2C1939.83 603.667 1916.36 580.2 1899.83 549.8C1883.29 519.4 1875.03 484.467 1875.03 445C1875.03 405.533 1883.29 370.6 1899.83 340.2C1916.36 309.8 1939.83 286.333 1970.23 269.8C2000.63 253.267 2035.56 245 2075.03 245ZM2094.23 149C2133.69 149 2168.63 157.267 2199.03 173.8C2229.43 190.333 2252.89 213.8 2269.43 244.2C2285.96 274.6 2294.23 309.533 2294.23 349C2294.23 388.467 2285.96 423.4 2269.43 453.8C2252.89 484.2 2229.43 507.667 2199.03 524.2C2168.63 540.733 2133.69 549 2094.23 549C2054.76 549 2019.83 540.733 1989.43 524.2C1959.03 507.667 1935.56 484.2 1919.03 453.8C1902.49 423.4 1894.23 388.467 1894.23 349C1894.23 309.533 1902.49 274.6 1919.03 244.2C1935.56 213.8 1959.03 190.333 1989.43 173.8C2019.83 157.267 2054.76 149 2094.23 149ZM2041.43 293C2080.89 293 2115.83 301.267 2146.23 317.8C2176.63 334.333 2200.09 357.8 2216.63 388.2C2233.16 418.6 2241.43 453.533 2241.43 493C2241.43 532.467 2233.16 567.4 2216.63 597.8C2200.09 628.2 2176.63 651.667 2146.23 668.2C2115.83 684.733 2080.89 693 2041.43 693C2001.96 693 1967.03 684.733 1936.63 668.2C1906.23 651.667 1882.76 628.2 1866.23 597.8C1849.69 567.4 1841.43 532.467 1841.43 493C1841.43 453.533 1849.69 418.6 1866.23 388.2C1882.76 357.8 1906.23 334.333 1936.63 317.8C1967.03 301.267 2001.96 293 2041.43 293ZM1772.63 677C1812.63 677 1847.56 685.267 1877.43 701.8C1907.83 718.333 1931.29 741.8 1947.83 772.2C1964.36 802.067 1972.63 837 1972.63 877C1972.63 917 1964.36 951.933 1947.83 981.8C1931.29 1012.2 1907.83 1035.67 1877.43 1052.2C1847.56 1068.73 1812.63 1077 1772.63 1077C1732.63 1077 1697.43 1068.73 1667.03 1052.2C1637.16 1035.67 1613.96 1012.2 1597.43 981.8C1580.89 951.933 1572.63 917 1572.63 877C1572.63 837 1580.89 802.067 1597.43 772.2C1613.96 741.8 1637.16 718.333 1667.03 701.8C1697.43 685.267 1732.63 677 1772.63 677ZM1839.83 581C1879.29 581 1914.23 589.267 1944.63 605.8C1975.03 622.333 1998.49 645.8 2015.03 676.2C2031.56 706.6 2039.83 741.533 2039.83 781C2039.83 820.467 2031.56 855.4 2015.03 885.8C1998.49 916.2 1975.03 939.667 1944.63 956.2C1914.23 972.733 1879.29 981 1839.83 981C1800.36 981 1765.43 972.733 1735.03 956.2C1704.63 939.667 1681.16 916.2 1664.63 885.8C1648.09 855.4 1639.83 820.467 1639.83 781C1639.83 741.533 1648.09 706.6 1664.63 676.2C1681.16 645.8 1704.63 622.333 1735.03 605.8C1765.43 589.267 1800.36 581 1839.83 581ZM1873.43 533C1912.89 533 1947.83 541.267 1978.23 557.8C2008.63 574.333 2032.09 597.8 2048.63 628.2C2065.16 658.6 2073.43 693.533 2073.43 733C2073.43 772.467 2065.16 807.4 2048.63 837.8C2032.09 868.2 2008.63 891.667 1978.23 908.2C1947.83 924.733 1912.89 933 1873.43 933C1833.96 933 1799.03 924.733 1768.63 908.2C1738.23 891.667 1714.76 868.2 1698.23 837.8C1681.69 807.4 1673.43 772.467 1673.43 733C1673.43 693.533 1681.69 658.6 1698.23 628.2C1714.76 597.8 1738.23 574.333 1768.63 557.8C1799.03 541.267 1833.96 533 1873.43 533ZM2007.83 341C2047.29 341 2082.23 349.267 2112.63 365.8C2143.03 382.333 2166.49 405.8 2183.03 436.2C2199.56 466.6 2207.83 501.533 2207.83 541C2207.83 580.467 2199.56 615.4 2183.03 645.8C2166.49 676.2 2143.03 699.667 2112.63 716.2C2082.23 732.733 2047.29 741 2007.83 741C1968.36 741 1933.43 732.733 1903.03 716.2C1872.63 699.667 1849.16 676.2 1832.63 645.8C1816.09 615.4 1807.83 580.467 1807.83 541C1807.83 501.533 1816.09 466.6 1832.63 436.2C1849.16 405.8 1872.63 382.333 1903.03 365.8C1933.43 349.267 1968.36 341 2007.83 341ZM1974.23 389C2013.69 389 2048.63 397.267 2079.03 413.8C2109.43 430.333 2132.89 453.8 2149.43 484.2C2165.96 514.6 2174.23 549.533 2174.23 589C2174.23 628.467 2165.96 663.4 2149.43 693.8C2132.89 724.2 2109.43 747.667 2079.03 764.2C2048.63 780.733 2013.69 789 1974.23 789C1934.76 789 1899.83 780.733 1869.43 764.2C1839.03 747.667 1815.56 724.2 1799.03 693.8C1782.49 663.4 1774.23 628.467 1774.23 589C1774.23 549.533 1782.49 514.6 1799.03 484.2C1815.56 453.8 1839.03 430.333 1869.43 413.8C1899.83 397.267 1934.76 389 1974.23 389ZM2142.23 629C2182.23 629 2217.16 637.267 2247.03 653.8C2277.43 670.333 2300.89 693.8 2317.43 724.2C2333.96 754.067 2342.23 789 2342.23 829C2342.23 869 2333.96 903.933 2317.43 933.8C2300.89 964.2 2277.43 987.667 2247.03 1004.2C2217.16 1020.73 2182.23 1029 2142.23 1029C2102.23 1029 2067.03 1020.73 2036.63 1004.2C2006.76 987.667 1983.56 964.2 1967.03 933.8C1950.49 903.933 1942.23 869 1942.23 829C1942.23 789 1950.49 754.067 1967.03 724.2C1983.56 693.8 2006.76 670.333 2036.63 653.8C2067.03 637.267 2102.23 629 2142.23 629ZM2243.03 485C2282.49 485 2317.43 493.267 2347.83 509.8C2378.23 526.333 2401.69 549.8 2418.23 580.2C2434.76 610.6 2443.03 645.533 2443.03 685C2443.03 724.467 2434.76 759.4 2418.23 789.8C2401.69 820.2 2378.23 843.667 2347.83 860.2C2317.43 876.733 2282.49 885 2243.03 885C2203.56 885 2168.63 876.733 2138.23 860.2C2107.83 843.667 2084.36 820.2 2067.83 789.8C2051.29 759.4 2043.03 724.467 2043.03 685C2043.03 645.533 2051.29 610.6 2067.83 580.2C2084.36 549.8 2107.83 526.333 2138.23 509.8C2168.63 493.267 2203.56 485 2243.03 485ZM2276.63 437C2316.09 437 2351.03 445.267 2381.43 461.8C2411.83 478.333 2435.29 501.8 2451.83 532.2C2468.36 562.6 2476.63 597.533 2476.63 637C2476.63 676.467 2468.36 711.4 2451.83 741.8C2435.29 772.2 2411.83 795.667 2381.43 812.2C2351.03 828.733 2316.09 837 2276.63 837C2237.16 837 2202.23 828.733 2171.83 812.2C2141.43 795.667 2117.96 772.2 2101.43 741.8C2084.89 711.4 2076.63 676.467 2076.63 637C2076.63 597.533 2084.89 562.6 2101.43 532.2C2117.96 501.8 2141.43 478.333 2171.83 461.8C2202.23 445.267 2237.16 437 2276.63 437ZM2411.03 245C2450.49 245 2485.43 253.267 2515.83 269.8C2546.23 286.333 2569.69 309.8 2586.23 340.2C2602.76 370.6 2611.03 405.533 2611.03 445C2611.03 484.467 2602.76 519.4 2586.23 549.8C2569.69 580.2 2546.23 603.667 2515.83 620.2C2485.43 636.733 2450.49 645 2411.03 645C2371.56 645 2336.63 636.733 2306.23 620.2C2275.83 603.667 2252.36 580.2 2235.83 549.8C2219.29 519.4 2211.03 484.467 2211.03 445C2211.03 405.533 2219.29 370.6 2235.83 340.2C2252.36 309.8 2275.83 286.333 2306.23 269.8C2336.63 253.267 2371.56 245 2411.03 245ZM2377.43 293C2416.89 293 2451.83 301.267 2482.23 317.8C2512.63 334.333 2536.09 357.8 2552.63 388.2C2569.16 418.6 2577.43 453.533 2577.43 493C2577.43 532.467 2569.16 567.4 2552.63 597.8C2536.09 628.2 2512.63 651.667 2482.23 668.2C2451.83 684.733 2416.89 693 2377.43 693C2337.96 693 2303.03 684.733 2272.63 668.2C2242.23 651.667 2218.76 628.2 2202.23 597.8C2185.69 567.4 2177.43 532.467 2177.43 493C2177.43 453.533 2185.69 418.6 2202.23 388.2C2218.76 357.8 2242.23 334.333 2272.63 317.8C2303.03 301.267 2337.96 293 2377.43 293ZM2108.63 677C2148.63 677 2183.56 685.267 2213.43 701.8C2243.83 718.333 2267.29 741.8 2283.83 772.2C2300.36 802.067 2308.63 837 2308.63 877C2308.63 917 2300.36 951.933 2283.83 981.8C2267.29 1012.2 2243.83 1035.67 2213.43 1052.2C2183.56 1068.73 2148.63 1077 2108.63 1077C2068.63 1077 2033.43 1068.73 2003.03 1052.2C1973.16 1035.67 1949.96 1012.2 1933.43 981.8C1916.89 951.933 1908.63 917 1908.63 877C1908.63 837 1916.89 802.067 1933.43 772.2C1949.96 741.8 1973.16 718.333 2003.03 701.8C2033.43 685.267 2068.63 677 2108.63 677ZM2175.83 581C2215.29 581 2250.23 589.267 2280.63 605.8C2311.03 622.333 2334.49 645.8 2351.03 676.2C2367.56 706.6 2375.83 741.533 2375.83 781C2375.83 820.467 2367.56 855.4 2351.03 885.8C2334.49 916.2 2311.03 939.667 2280.63 956.2C2250.23 972.733 2215.29 981 2175.83 981C2136.36 981 2101.43 972.733 2071.03 956.2C2040.63 939.667 2017.16 916.2 2000.63 885.8C1984.09 855.4 1975.83 820.467 1975.83 781C1975.83 741.533 1984.09 706.6 2000.63 676.2C2017.16 645.8 2040.63 622.333 2071.03 605.8C2101.43 589.267 2136.36 581 2175.83 581ZM2209.43 533C2248.89 533 2283.83 541.267 2314.23 557.8C2344.63 574.333 2368.09 597.8 2384.63 628.2C2401.16 658.6 2409.43 693.533 2409.43 733C2409.43 772.467 2401.16 807.4 2384.63 837.8C2368.09 868.2 2344.63 891.667 2314.23 908.2C2283.83 924.733 2248.89 933 2209.43 933C2169.96 933 2135.03 924.733 2104.63 908.2C2074.23 891.667 2050.76 868.2 2034.23 837.8C2017.69 807.4 2009.43 772.467 2009.43 733C2009.43 693.533 2017.69 658.6 2034.23 628.2C2050.76 597.8 2074.23 574.333 2104.63 557.8C2135.03 541.267 2169.96 533 2209.43 533ZM2343.83 341C2383.29 341 2418.23 349.267 2448.63 365.8C2479.03 382.333 2502.49 405.8 2519.03 436.2C2535.56 466.6 2543.83 501.533 2543.83 541C2543.83 580.467 2535.56 615.4 2519.03 645.8C2502.49 676.2 2479.03 699.667 2448.63 716.2C2418.23 732.733 2383.29 741 2343.83 741C2304.36 741 2269.43 732.733 2239.03 716.2C2208.63 699.667 2185.16 676.2 2168.63 645.8C2152.09 615.4 2143.83 580.467 2143.83 541C2143.83 501.533 2152.09 466.6 2168.63 436.2C2185.16 405.8 2208.63 382.333 2239.03 365.8C2269.43 349.267 2304.36 341 2343.83 341ZM2310.23 389C2349.69 389 2384.63 397.267 2415.03 413.8C2445.43 430.333 2468.89 453.8 2485.43 484.2C2501.96 514.6 2510.23 549.533 2510.23 589C2510.23 628.467 2501.96 663.4 2485.43 693.8C2468.89 724.2 2445.43 747.667 2415.03 764.2C2384.63 780.733 2349.69 789 2310.23 789C2270.76 789 2235.83 780.733 2205.43 764.2C2175.03 747.667 2151.56 724.2 2135.03 693.8C2118.49 663.4 2110.23 628.467 2110.23 589C2110.23 549.533 2118.49 514.6 2135.03 484.2C2151.56 453.8 2175.03 430.333 2205.43 413.8C2235.83 397.267 2270.76 389 2310.23 389ZM2065.43 53C2104.89 53 2139.83 61.2667 2170.23 77.8C2200.63 94.3334 2224.09 117.8 2240.63 148.2C2257.16 178.6 2265.43 213.533 2265.43 253C2265.43 292.467 2257.16 327.4 2240.63 357.8C2224.09 388.2 2200.63 411.667 2170.23 428.2C2139.83 444.733 2104.89 453 2065.43 453C2025.96 453 1991.03 444.733 1960.63 428.2C1930.23 411.667 1906.76 388.2 1890.23 357.8C1873.69 327.4 1865.43 292.467 1865.43 253C1865.43 213.533 1873.69 178.6 1890.23 148.2C1906.76 117.8 1930.23 94.3334 1960.63 77.8C1991.03 61.2667 2025.96 53 2065.43 53ZM1935.83 101C1975.29 101 2010.23 109.267 2040.63 125.8C2071.03 142.333 2094.49 165.8 2111.03 196.2C2127.56 226.6 2135.83 261.533 2135.83 301C2135.83 340.467 2127.56 375.4 2111.03 405.8C2094.49 436.2 2071.03 459.667 2040.63 476.2C2010.23 492.733 1975.29 501 1935.83 501C1896.36 501 1861.43 492.733 1831.03 476.2C1800.63 459.667 1777.16 436.2 1760.63 405.8C1744.09 375.4 1735.83 340.467 1735.83 301C1735.83 261.533 1744.09 226.6 1760.63 196.2C1777.16 165.8 1800.63 142.333 1831.03 125.8C1861.43 109.267 1896.36 101 1935.83 101ZM1772.63 197C1812.09 197 1847.03 205.267 1877.43 221.8C1907.83 238.333 1931.29 261.8 1947.83 292.2C1964.36 322.6 1972.63 357.533 1972.63 397C1972.63 436.467 1964.36 471.4 1947.83 501.8C1931.29 532.2 1907.83 555.667 1877.43 572.2C1847.03 588.733 1812.09 597 1772.63 597C1733.16 597 1698.23 588.733 1667.83 572.2C1637.43 555.667 1613.96 532.2 1597.43 501.8C1580.89 471.4 1572.63 436.467 1572.63 397C1572.63 357.533 1580.89 322.6 1597.43 292.2C1613.96 261.8 1637.43 238.333 1667.83 221.8C1698.23 205.267 1733.16 197 1772.63 197ZM1873.43 53C1912.89 53 1947.83 61.2667 1978.23 77.8C2008.63 94.3334 2032.09 117.8 2048.63 148.2C2065.16 178.6 2073.43 213.533 2073.43 253C2073.43 292.467 2065.16 327.4 2048.63 357.8C2032.09 388.2 2008.63 411.667 1978.23 428.2C1947.83 444.733 1912.89 453 1873.43 453C1833.96 453 1799.03 444.733 1768.63 428.2C1738.23 411.667 1714.76 388.2 1698.23 357.8C1681.69 327.4 1673.43 292.467 1673.43 253C1673.43 213.533 1681.69 178.6 1698.23 148.2C1714.76 117.8 1738.23 94.3334 1768.63 77.8C1799.03 61.2667 1833.96 53 1873.43 53ZM2113.43 53C2152.89 53 2187.83 61.2667 2218.23 77.8C2248.63 94.3334 2272.09 117.8 2288.63 148.2C2305.16 178.6 2313.43 213.533 2313.43 253C2313.43 292.467 2305.16 327.4 2288.63 357.8C2272.09 388.2 2248.63 411.667 2218.23 428.2C2187.83 444.733 2152.89 453 2113.43 453C2073.96 453 2039.03 444.733 2008.63 428.2C1978.23 411.667 1954.76 388.2 1938.23 357.8C1921.69 327.4 1913.43 292.467 1913.43 253C1913.43 213.533 1921.69 178.6 1938.23 148.2C1954.76 117.8 1978.23 94.3334 2008.63 77.8C2039.03 61.2667 2073.96 53 2113.43 53ZM1854.23 149C1893.69 149 1928.63 157.267 1959.03 173.8C1989.43 190.333 2012.89 213.8 2029.43 244.2C2045.96 274.6 2054.23 309.533 2054.23 349C2054.23 388.467 2045.96 423.4 2029.43 453.8C2012.89 484.2 1989.43 507.667 1959.03 524.2C1928.63 540.733 1893.69 549 1854.23 549C1814.76 549 1779.83 540.733 1749.43 524.2C1719.03 507.667 1695.56 484.2 1679.03 453.8C1662.49 423.4 1654.23 388.467 1654.23 349C1654.23 309.533 1662.49 274.6 1679.03 244.2C1695.56 213.8 1719.03 190.333 1749.43 173.8C1779.83 157.267 1814.76 149 1854.23 149ZM1571.03 485C1610.49 485 1645.43 493.267 1675.83 509.8C1706.23 526.333 1729.69 549.8 1746.23 580.2C1762.76 610.6 1771.03 645.533 1771.03 685C1771.03 724.467 1762.76 759.4 1746.23 789.8C1729.69 820.2 1706.23 843.667 1675.83 860.2C1645.43 876.733 1610.49 885 1571.03 885C1531.56 885 1496.63 876.733 1466.23 860.2C1435.83 843.667 1412.36 820.2 1395.83 789.8C1379.29 759.4 1371.03 724.467 1371.03 685C1371.03 645.533 1379.29 610.6 1395.83 580.2C1412.36 549.8 1435.83 526.333 1466.23 509.8C1496.63 493.267 1531.56 485 1571.03 485ZM1470.23 629C1510.23 629 1545.16 637.267 1575.03 653.8C1605.43 670.333 1628.89 693.8 1645.43 724.2C1661.96 754.067 1670.23 789 1670.23 829C1670.23 869 1661.96 903.933 1645.43 933.8C1628.89 964.2 1605.43 987.667 1575.03 1004.2C1545.16 1020.73 1510.23 1029 1470.23 1029C1430.23 1029 1395.03 1020.73 1364.63 1004.2C1334.76 987.667 1311.56 964.2 1295.03 933.8C1278.49 903.933 1270.23 869 1270.23 829C1270.23 789 1278.49 754.067 1295.03 724.2C1311.56 693.8 1334.76 670.333 1364.63 653.8C1395.03 637.267 1430.23 629 1470.23 629ZM1604.63 437C1644.09 437 1679.03 445.267 1709.43 461.8C1739.83 478.333 1763.29 501.8 1779.83 532.2C1796.36 562.6 1804.63 597.533 1804.63 637C1804.63 676.467 1796.36 711.4 1779.83 741.8C1763.29 772.2 1739.83 795.667 1709.43 812.2C1679.03 828.733 1644.09 837 1604.63 837C1565.16 837 1530.23 828.733 1499.83 812.2C1469.43 795.667 1445.96 772.2 1429.43 741.8C1412.89 711.4 1404.63 676.467 1404.63 637C1404.63 597.533 1412.89 562.6 1429.43 532.2C1445.96 501.8 1469.43 478.333 1499.83 461.8C1530.23 445.267 1565.16 437 1604.63 437ZM1739.03 245C1778.49 245 1813.43 253.267 1843.83 269.8C1874.23 286.333 1897.69 309.8 1914.23 340.2C1930.76 370.6 1939.03 405.533 1939.03 445C1939.03 484.467 1930.76 519.4 1914.23 549.8C1897.69 580.2 1874.23 603.667 1843.83 620.2C1813.43 636.733 1778.49 645 1739.03 645C1699.56 645 1664.63 636.733 1634.23 620.2C1603.83 603.667 1580.36 580.2 1563.83 549.8C1547.29 519.4 1539.03 484.467 1539.03 445C1539.03 405.533 1547.29 370.6 1563.83 340.2C1580.36 309.8 1603.83 286.333 1634.23 269.8C1664.63 253.267 1699.56 245 1739.03 245ZM1806.23 149C1845.69 149 1880.63 157.267 1911.03 173.8C1941.43 190.333 1964.89 213.8 1981.43 244.2C1997.96 274.6 2006.23 309.533 2006.23 349C2006.23 388.467 1997.96 423.4 1981.43 453.8C1964.89 484.2 1941.43 507.667 1911.03 524.2C1880.63 540.733 1845.69 549 1806.23 549C1766.76 549 1731.83 540.733 1701.43 524.2C1671.03 507.667 1647.56 484.2 1631.03 453.8C1614.49 423.4 1606.23 388.467 1606.23 349C1606.23 309.533 1614.49 274.6 1631.03 244.2C1647.56 213.8 1671.03 190.333 1701.43 173.8C1731.83 157.267 1766.76 149 1806.23 149ZM1839.83 101C1879.29 101 1914.23 109.267 1944.63 125.8C1975.03 142.333 1998.49 165.8 2015.03 196.2C2031.56 226.6 2039.83 261.533 2039.83 301C2039.83 340.467 2031.56 375.4 2015.03 405.8C1998.49 436.2 1975.03 459.667 1944.63 476.2C1914.23 492.733 1879.29 501 1839.83 501C1800.36 501 1765.43 492.733 1735.03 476.2C1704.63 459.667 1681.16 436.2 1664.63 405.8C1648.09 375.4 1639.83 340.467 1639.83 301C1639.83 261.533 1648.09 226.6 1664.63 196.2C1681.16 165.8 1704.63 142.333 1735.03 125.8C1765.43 109.267 1800.36 101 1839.83 101ZM1705.43 293C1744.89 293 1779.83 301.267 1810.23 317.8C1840.63 334.333 1864.09 357.8 1880.63 388.2C1897.16 418.6 1905.43 453.533 1905.43 493C1905.43 532.467 1897.16 567.4 1880.63 597.8C1864.09 628.2 1840.63 651.667 1810.23 668.2C1779.83 684.733 1744.89 693 1705.43 693C1665.96 693 1631.03 684.733 1600.63 668.2C1570.23 651.667 1546.76 628.2 1530.23 597.8C1513.69 567.4 1505.43 532.467 1505.43 493C1505.43 453.533 1513.69 418.6 1530.23 388.2C1546.76 357.8 1570.23 334.333 1600.63 317.8C1631.03 301.267 1665.96 293 1705.43 293ZM1436.63 677C1476.63 677 1511.56 685.267 1541.43 701.8C1571.83 718.333 1595.29 741.8 1611.83 772.2C1628.36 802.067 1636.63 837 1636.63 877C1636.63 917 1628.36 951.933 1611.83 981.8C1595.29 1012.2 1571.83 1035.67 1541.43 1052.2C1511.56 1068.73 1476.63 1077 1436.63 1077C1396.63 1077 1361.43 1068.73 1331.03 1052.2C1301.16 1035.67 1277.96 1012.2 1261.43 981.8C1244.89 951.933 1236.63 917 1236.63 877C1236.63 837 1244.89 802.067 1261.43 772.2C1277.96 741.8 1301.16 718.333 1331.03 701.8C1361.43 685.267 1396.63 677 1436.63 677ZM1503.83 581C1543.29 581 1578.23 589.267 1608.63 605.8C1639.03 622.333 1662.49 645.8 1679.03 676.2C1695.56 706.6 1703.83 741.533 1703.83 781C1703.83 820.467 1695.56 855.4 1679.03 885.8C1662.49 916.2 1639.03 939.667 1608.63 956.2C1578.23 972.733 1543.29 981 1503.83 981C1464.36 981 1429.43 972.733 1399.03 956.2C1368.63 939.667 1345.16 916.2 1328.63 885.8C1312.09 855.4 1303.83 820.467 1303.83 781C1303.83 741.533 1312.09 706.6 1328.63 676.2C1345.16 645.8 1368.63 622.333 1399.03 605.8C1429.43 589.267 1464.36 581 1503.83 581ZM1537.43 533C1576.89 533 1611.83 541.267 1642.23 557.8C1672.63 574.333 1696.09 597.8 1712.63 628.2C1729.16 658.6 1737.43 693.533 1737.43 733C1737.43 772.467 1729.16 807.4 1712.63 837.8C1696.09 868.2 1672.63 891.667 1642.23 908.2C1611.83 924.733 1576.89 933 1537.43 933C1497.96 933 1463.03 924.733 1432.63 908.2C1402.23 891.667 1378.76 868.2 1362.23 837.8C1345.69 807.4 1337.43 772.467 1337.43 733C1337.43 693.533 1345.69 658.6 1362.23 628.2C1378.76 597.8 1402.23 574.333 1432.63 557.8C1463.03 541.267 1497.96 533 1537.43 533ZM1671.83 341C1711.29 341 1746.23 349.267 1776.63 365.8C1807.03 382.333 1830.49 405.8 1847.03 436.2C1863.56 466.6 1871.83 501.533 1871.83 541C1871.83 580.467 1863.56 615.4 1847.03 645.8C1830.49 676.2 1807.03 699.667 1776.63 716.2C1746.23 732.733 1711.29 741 1671.83 741C1632.36 741 1597.43 732.733 1567.03 716.2C1536.63 699.667 1513.16 676.2 1496.63 645.8C1480.09 615.4 1471.83 580.467 1471.83 541C1471.83 501.533 1480.09 466.6 1496.63 436.2C1513.16 405.8 1536.63 382.333 1567.03 365.8C1597.43 349.267 1632.36 341 1671.83 341ZM1638.23 389C1677.69 389 1712.63 397.267 1743.03 413.8C1773.43 430.333 1796.89 453.8 1813.43 484.2C1829.96 514.6 1838.23 549.533 1838.23 589C1838.23 628.467 1829.96 663.4 1813.43 693.8C1796.89 724.2 1773.43 747.667 1743.03 764.2C1712.63 780.733 1677.69 789 1638.23 789C1598.76 789 1563.83 780.733 1533.43 764.2C1503.03 747.667 1479.56 724.2 1463.03 693.8C1446.49 663.4 1438.23 628.467 1438.23 589C1438.23 549.533 1446.49 514.6 1463.03 484.2C1479.56 453.8 1503.03 430.333 1533.43 413.8C1563.83 397.267 1598.76 389 1638.23 389Z" fill="white"/>
</g>
<defs>
<clipPath id="clip0_829_321">
<rect width="1440" height="1100" fill="white"/>
</clipPath>
</defs>
</svg>
